<svg width="60" height="60" viewBox="0 0 60 60" fill="none" xmlns="http://www.w3.org/2000/svg">
<g id="Frame" clip-path="url(#clip0_76_929)">
<g id="Group">
<g id="Group_2">
<path id="Vector" fill-rule="evenodd" clip-rule="evenodd" d="M20.5533 36.703H33.2619C33.7848 36.703 34.2093 36.2786 34.2093 35.7557C34.2093 35.2328 33.7848 34.8083 33.2619 34.8083H20.5533C20.0304 34.8083 19.606 35.2328 19.606 35.7557C19.606 36.2786 20.0303 36.703 20.5533 36.703Z" fill="#173F35"/>
<path id="Vector_2" fill-rule="evenodd" clip-rule="evenodd" d="M28.5511 35.7555V58.5637C28.5511 59.0867 28.9756 59.511 29.4985 59.511C30.0208 59.511 30.4458 59.0866 30.4458 58.5637V35.7555C30.4458 35.2325 30.0208 34.8082 29.4985 34.8082C28.9756 34.8082 28.5511 35.2326 28.5511 35.7555ZM8.26294 0.488831C4.5758 0.488831 1.58147 3.48316 1.58147 7.17089C1.58147 10.8586 4.5758 13.8523 8.26294 13.8523C11.9508 13.8523 14.9451 10.8587 14.9451 7.17089C14.9451 3.48306 11.9508 0.488831 8.26294 0.488831ZM8.26294 2.38357C10.9055 2.38357 13.0504 4.52846 13.0504 7.17089C13.0504 9.81282 10.9055 11.9576 8.26294 11.9576C5.621 11.9576 3.47621 9.81282 3.47621 7.17089C3.47621 4.52836 5.6211 2.38357 8.26294 2.38357ZM51.7371 0.488831C48.0492 0.488831 45.0549 3.48316 45.0549 7.17089C45.0549 10.8586 48.0492 13.8523 51.7371 13.8523C55.4242 13.8523 58.4185 10.8587 58.4185 7.17089C58.4185 3.48306 55.4242 0.488831 51.7371 0.488831ZM51.7371 2.38357C54.379 2.38357 56.5238 4.52846 56.5238 7.17089C56.5238 9.81282 54.379 11.9576 51.7371 11.9576C49.0945 11.9576 46.9496 9.81282 46.9496 7.17089C46.9496 4.52836 49.0945 2.38357 51.7371 2.38357ZM13.4849 27.4465C13.5632 27.6045 13.6842 27.7375 13.834 27.8304C13.9839 27.9234 14.1568 27.9726 14.3331 27.9726L14.6849 27.9043L23.4082 24.4174C24.751 23.8812 26.2763 24.5349 26.8131 25.8776C27.3493 27.2197 26.695 28.745 25.3529 29.2818L13.8323 33.8866C12.7314 34.3268 11.4847 33.9706 10.7792 33.046C10.659 32.8885 10.4924 32.7726 10.3028 32.7147C10.1133 32.6568 9.9104 32.6598 9.72265 32.7232C9.53503 32.7868 9.37205 32.9076 9.25661 33.0685C9.14117 33.2295 9.07909 33.4226 9.07908 33.6207V38.3784C9.07909 38.6108 9.16447 38.835 9.319 39.0085C9.47353 39.182 9.68643 39.2927 9.91723 39.3195L17.5852 40.205C19.3973 40.414 20.7652 41.9487 20.7652 43.7734V58.5638C20.7652 59.0868 21.1896 59.5111 21.7125 59.5111C22.2355 59.5111 22.6599 59.0867 22.6599 58.5638V43.7734C22.6599 40.9863 20.5707 38.6424 17.8024 38.3229L10.9737 37.5341V35.556C12.0664 36.0581 13.3497 36.12 14.5352 35.6463L26.0565 31.0415C28.3693 30.1163 29.4968 27.4876 28.5721 25.1741C27.6475 22.8606 25.0188 21.7333 22.7054 22.6579L14.7248 25.848L10.1401 18.3442C9.81985 17.82 9.39592 17.3666 8.8943 17.0119C8.39268 16.6572 7.82393 16.4087 7.22289 16.2815C7.18563 16.2739 7.14838 16.2657 7.11044 16.2581C6.48138 16.1251 5.83116 16.128 5.20332 16.2667C4.57549 16.4053 3.98451 16.6765 3.46997 17.0621C2.95549 17.4478 2.52936 17.939 2.22012 18.5028C1.91088 19.0666 1.72567 19.6899 1.67688 20.3311C1.1198 27.6612 0.00257585 42.3518 0.00257585 42.3518C0.000594427 42.3757 0 42.3997 0 42.4238C0 45.2078 2.08485 47.5496 4.84924 47.873L11.686 48.7559V58.5637C11.686 59.0867 12.1105 59.511 12.6334 59.511C13.1563 59.511 13.5807 59.0866 13.5807 58.5637V47.9229C13.5807 47.6926 13.4969 47.4702 13.3448 47.2973C13.1928 47.1243 12.9829 47.0126 12.7545 46.9832L5.07453 45.9922C3.2752 45.7845 1.91406 44.2699 1.89454 42.4623C1.89454 42.4573 3.56567 20.4746 3.56567 20.4746C3.594 20.1027 3.70147 19.7411 3.88087 19.4141C4.06028 19.0871 4.30748 18.8022 4.60592 18.5785C4.90449 18.3547 5.24743 18.1973 5.61177 18.1168C5.97612 18.0364 6.35345 18.0346 6.71851 18.1118L6.83027 18.1352C7.17898 18.2091 7.50896 18.3533 7.8 18.5591C8.09104 18.7649 8.33703 19.0279 8.5229 19.3321C9.95596 21.6778 12.8605 26.4323 13.4271 27.3601C13.4463 27.3903 13.4653 27.4194 13.4849 27.4465Z" fill="#173F35"/>
<path id="Vector_3" fill-rule="evenodd" clip-rule="evenodd" d="M5.96318 28.8246L9.00744 33.8084C10.155 35.6867 12.4906 36.4635 14.535 35.6462C15.0207 35.4524 15.2575 34.9003 15.0631 34.4153C14.8692 33.9296 14.3172 33.6927 13.8321 33.8866C12.646 34.361 11.2906 33.9106 10.6243 32.8205L7.58012 27.8367C7.30728 27.3908 6.72365 27.25 6.27783 27.5222C5.83181 27.7951 5.69033 28.3787 5.96318 28.8246ZM44.3985 27.2835L35.2254 28.5808C32.7585 28.9294 31.0394 31.2157 31.388 33.6826C31.7367 36.1489 34.0229 37.8687 36.4899 37.5201L47.7718 35.924C48.2056 35.863 48.6282 35.739 49.0262 35.5558V37.5338L42.1975 38.3226C39.4292 38.6422 37.34 40.986 37.34 43.7731V58.5635C37.34 59.0865 37.7644 59.5108 38.2873 59.5108C38.8102 59.5108 39.2347 59.0864 39.2347 58.5635V43.7731C39.2347 41.9485 40.6026 40.4137 42.4146 40.2047L50.0801 39.3192H50.0782C50.3099 39.2936 50.5239 39.1834 50.6794 39.0098C50.8349 38.8361 50.9208 38.6112 50.9207 38.3781V33.6198C50.9207 33.4218 50.8586 33.2288 50.7431 33.0679C50.6277 32.9071 50.4647 32.7864 50.2771 32.723C50.0895 32.6594 49.8866 32.6563 49.697 32.7141C49.5075 32.7719 49.3408 32.8876 49.2205 33.0451C48.8031 33.5916 48.1873 33.9519 47.5064 34.0481L36.2245 35.6435C34.7927 35.8462 33.4663 34.8483 33.2642 33.4165C33.0615 31.9854 34.0594 30.6591 35.4906 30.4563L45.1038 29.0971L44.9738 29.1059L45.7822 28.6525L50.908 20.262C51.2295 19.7358 51.69 19.3087 52.2387 19.0275C52.7874 18.7464 53.4031 18.6221 54.018 18.6685L54.0704 18.6723C55.7592 18.7999 57.0874 20.1678 57.1645 21.8592L58.1048 42.4436C58.0947 44.2588 56.7305 45.7828 54.9249 45.9918L47.4047 46.8603C47.176 46.8866 46.9648 46.9952 46.8105 47.166C46.6562 47.3368 46.5695 47.558 46.5665 47.7881L46.4187 58.5502C46.4118 59.0732 46.8304 59.5033 47.3528 59.5108C47.8758 59.5177 48.3059 59.0991 48.3134 58.5761L48.4493 48.6464L55.1421 47.8739C57.9104 47.5543 59.9996 45.2099 59.9996 42.4234C59.9996 42.4088 59.999 42.3944 59.9983 42.3798L59.0572 21.7727C58.936 19.1238 56.8569 16.9822 54.213 16.7832C54.1953 16.7819 54.1777 16.78 54.1606 16.7787C53.1979 16.7062 52.2339 16.9009 51.3747 17.3412C50.5156 17.7814 49.7946 18.4503 49.2912 19.2741L44.3985 27.2835ZM38.9486 3.33089C38.9486 2.57713 38.6492 1.85426 38.1162 1.32123C37.8524 1.05728 37.5391 0.847912 37.1942 0.705087C36.8494 0.562261 36.4798 0.488776 36.1066 0.488831H22.8895C21.3194 0.488831 20.0473 1.7615 20.0473 3.33089V15.3713C20.0473 15.6744 20.1344 15.9711 20.2984 16.2259C20.4623 16.4808 20.6962 16.6831 20.972 16.8087C21.2479 16.9343 21.554 16.9777 21.854 16.9339C22.1539 16.8901 22.4348 16.7609 22.6633 16.5617C23.5747 15.7679 24.8587 14.6487 25.5742 14.0247C25.747 13.8746 25.9681 13.7918 26.197 13.7917H36.1065C36.4797 13.7918 36.8493 13.7183 37.1941 13.5754C37.5389 13.4326 37.8523 13.2233 38.1161 12.9593C38.6491 12.4263 38.9485 11.7034 38.9485 10.9497V3.33089H38.9486ZM21.9421 14.6772V3.33089C21.9421 2.80799 22.3659 2.38357 22.8894 2.38357H36.1065C36.231 2.38351 36.3542 2.40803 36.4692 2.45572C36.5842 2.50341 36.6887 2.57333 36.7766 2.66146C36.8645 2.74937 36.9343 2.85373 36.9818 2.96859C37.0294 3.08345 37.0539 3.20656 37.0539 3.33089V10.9497C37.0539 11.074 37.0295 11.1971 36.9819 11.312C36.9343 11.4268 36.8645 11.5312 36.7766 11.6191C36.6887 11.7072 36.5842 11.7771 36.4692 11.8248C36.3542 11.8725 36.231 11.897 36.1065 11.897H26.1971C25.5106 11.8969 24.8472 12.1453 24.3295 12.5961L21.9421 14.6772Z" fill="#173F35"/>
<path id="Vector_4" fill-rule="evenodd" clip-rule="evenodd" d="M25.2779 6.35741H33.8623C34.3853 6.35741 34.8096 5.93299 34.8096 5.41009C34.8096 4.88719 34.3852 4.46277 33.8623 4.46277H25.2779C24.755 4.46277 24.3306 4.88719 24.3306 5.41009C24.3306 5.93299 24.7549 6.35741 25.2779 6.35741ZM25.2779 9.81222H29.4987C30.021 9.81222 30.446 9.3878 30.446 8.8649C30.446 8.3419 30.021 7.91758 29.4987 7.91758H25.2779C24.755 7.91758 24.3306 8.342 24.3306 8.8649C24.3305 9.3878 24.7549 9.81222 25.2779 9.81222ZM44.9257 36.3271L47.7722 35.9242C48.4318 35.8309 49.0626 35.5929 49.6194 35.2271C50.1762 34.8613 50.6451 34.3768 50.9926 33.8085L54.0368 28.8247C54.3096 28.3788 54.1681 27.7952 53.7222 27.5224C53.2763 27.2501 52.6928 27.391 52.4199 27.8369L49.3758 32.8207C49.174 33.1505 48.9019 33.4316 48.5788 33.6438C48.2557 33.8561 47.8897 33.9943 47.5069 34.0485L44.6604 34.4508C44.1424 34.5241 43.7812 35.0041 43.8544 35.522C43.9277 36.0391 44.4077 36.4004 44.9257 36.3271Z" fill="#173F35"/>
</g>
</g>
</g>
<defs>
<clipPath id="clip0_76_929">
<rect width="60" height="60" fill="white"/>
</clipPath>
</defs>
</svg>
