<svg width="73" height="77" viewBox="0 0 73 77" fill="none" xmlns="http://www.w3.org/2000/svg">
<g id="Frame">
<g id="Group">
<path id="Vector" d="M36.6451 7.49724L36.6289 7.47836C36.6051 7.45059 36.5842 7.43725 36.5684 7.43003C36.5524 7.42268 36.5306 7.41663 36.4998 7.41663C36.4689 7.41663 36.4472 7.42268 36.4311 7.43003C36.4154 7.43725 36.3945 7.45059 36.3706 7.47836L36.3544 7.49724L36.3373 7.5153C36.3559 7.49566 36.1348 7.73981 35.8121 8.07315C35.475 8.42147 34.9867 8.91061 34.3614 9.49622C33.1117 10.6667 31.3104 12.2263 29.0704 13.8184C24.6046 16.9925 18.3205 20.3483 11.1396 20.9269L11.0593 19.9301L11.1401 20.9269C11.1053 20.9297 11.0607 20.9466 11.0172 20.9967C10.9726 21.048 10.9399 21.1237 10.9399 21.2135V30.8513C10.9399 43.7848 16.0556 55.5197 24.8984 63.0991L36.6451 7.49724ZM36.6451 7.49724L36.6622 7.5153M36.6451 7.49724L36.6622 7.5153M36.6622 7.5153C36.6489 7.50126 36.8624 7.73676 37.1899 8.07416C37.5279 8.42243 38.0174 8.91149 38.6441 9.49701C39.8966 10.6673 41.7011 12.2268 43.9432 13.8187C48.4129 16.9922 54.6968 20.3482 61.8594 20.9269C61.8943 20.9297 61.9388 20.9466 61.9824 20.9968C62.0269 21.048 62.0596 21.1237 62.0596 21.2135V30.8513C62.0596 43.7848 56.944 55.5197 48.1012 63.0991C44.5106 66.174 40.6283 68.3354 36.5496 69.5752L36.529 69.5814M36.6622 7.5153L36.529 69.5814M36.529 69.5814L36.5268 69.5822M36.529 69.5814L36.5268 69.5822M36.5268 69.5822C36.5251 69.5824 36.523 69.5825 36.5206 69.5827C36.5147 69.5831 36.5077 69.5833 36.4998 69.5833C36.4945 69.5833 36.4904 69.5832 36.4873 69.5831L36.4823 69.5813L36.4613 69.575C32.371 68.3352 28.4891 66.174 24.8987 63.0994L36.5268 69.5822Z" stroke="#173F35" stroke-width="2"/>
<path id="Vector_2" d="M56.4163 39.5902V39.5647C56.4163 39.552 56.4043 39.5393 56.4043 39.5266C56.4163 39.552 56.4163 39.5774 56.4163 39.5902Z" fill="#173F35"/>
</g>
<g id="Vector_3">
<mask id="path-3-inside-1_196_325" fill="white">
<path d="M53.0062 40.297L48.9411 33.2545C49.4512 33.0655 49.9388 32.8224 50.3953 32.5297C50.5308 32.4421 50.6473 32.3293 50.7383 32.1975C50.8293 32.0657 50.893 31.9176 50.9258 31.7617C50.9585 31.6057 50.9596 31.445 50.9291 31.2886C50.8985 31.1322 50.8369 30.9833 50.7477 30.8503C50.6586 30.7173 50.5436 30.6029 50.4094 30.5135C50.2752 30.4241 50.1244 30.3616 49.9656 30.3295C49.8067 30.2973 49.643 30.2962 49.4838 30.3262C49.3245 30.3562 49.1728 30.4167 49.0374 30.5042C48.3584 30.9677 47.5556 31.2249 46.7289 31.2436C45.3866 31.0258 44.1619 30.3601 43.2612 29.3588C41.965 28.2497 40.4701 26.9927 38.4492 27.1455C38.0686 27.1801 37.6941 27.262 37.3345 27.3891V26.2121C37.3345 25.8906 37.2044 25.5823 36.9729 25.355C36.7414 25.1277 36.4274 25 36.1 25C35.7726 25 35.4586 25.1277 35.2271 25.355C34.9956 25.5823 34.8655 25.8906 34.8655 26.2121V27.4642C34.4457 27.2949 34.0026 27.1879 33.5508 27.1467C31.5188 26.9988 30.035 28.2497 28.7388 29.3588C27.8379 30.3596 26.6132 31.0249 25.2711 31.2424C24.4416 31.2382 23.6341 30.9797 22.9614 30.503C22.6877 30.3265 22.3538 30.264 22.0331 30.3293C21.7125 30.3945 21.4314 30.5822 21.2516 30.8509C21.0719 31.1197 21.0082 31.4475 21.0747 31.7624C21.1411 32.0772 21.3322 32.3532 21.6059 32.5297C22.0622 32.8218 22.5493 33.0645 23.0589 33.2533L18.9938 40.2958C18.7162 40.3466 18.4654 40.4907 18.2841 40.7031C18.1028 40.9156 18.0024 41.1834 18 41.4606C18.0581 43.2189 18.8234 44.883 20.1283 46.0884C21.4333 47.2938 23.1715 47.9424 24.9625 47.8921C26.753 47.9418 28.4906 47.2929 29.7951 46.0875C31.0995 44.8822 31.8644 43.2185 31.9225 41.4606C31.9199 41.1838 31.8195 40.9165 31.6385 40.7042C31.4575 40.492 31.2071 40.3481 30.93 40.297L26.9389 33.383C28.2168 32.882 29.3798 32.1353 30.3596 31.1867C31.4275 30.2752 32.3657 29.4848 33.3656 29.5624C33.9248 29.635 34.4481 29.8735 34.8655 30.2461V43.1527C34.3562 43.3834 33.9247 43.7521 33.6218 44.2156C33.3188 44.679 33.1572 45.2178 33.1557 45.7685V49.2424H31.1522C30.8248 49.2424 30.5108 49.3701 30.2793 49.5974C30.0478 49.8248 29.9177 50.1331 29.9177 50.4545C29.9177 50.776 30.0478 51.0843 30.2793 51.3116C30.5108 51.539 30.8248 51.6667 31.1522 51.6667H40.9663C41.2937 51.6667 41.6077 51.539 41.8392 51.3116C42.0707 51.0843 42.2008 50.776 42.2008 50.4545C42.2008 50.1331 42.0707 49.8248 41.8392 49.5974C41.6077 49.3701 41.2937 49.2424 40.9663 49.2424H39.0442V45.7685C39.0428 45.2178 38.8811 44.679 38.5782 44.2156C38.2753 43.7521 37.8438 43.3834 37.3345 43.1527V30.0897C37.71 29.7998 38.1599 29.6178 38.6344 29.5636C39.6726 29.4788 40.575 30.2752 41.6404 31.1879C42.6199 32.136 43.7825 32.8823 45.0599 33.383L41.0725 40.2958C40.7947 40.3464 40.5436 40.4903 40.362 40.7028C40.1805 40.9153 40.0799 41.1832 40.0775 41.4606C40.1882 43.1996 40.9698 44.8318 42.2631 46.0248C43.5564 47.2178 45.2642 47.882 47.0387 47.882C48.8133 47.882 50.5211 47.2178 51.8144 46.0248C53.1077 44.8318 53.8893 43.1996 54 41.4606C53.9974 41.1836 53.8968 40.9161 53.7155 40.7039C53.5343 40.4916 53.2836 40.3478 53.0062 40.297ZM28.0635 40.2485H21.8602L24.9613 34.8739L28.0635 40.2485ZM24.9613 45.4679C24.0414 45.4908 23.1366 45.2348 22.3703 44.7346C21.604 44.2344 21.0134 43.5144 20.6788 42.6727H29.2437C28.9092 43.5144 28.3185 44.2344 27.5522 44.7346C26.7859 45.2348 25.8811 45.4908 24.9613 45.4679ZM35.6247 49.2424V45.7685C35.6247 45.6447 35.6748 45.526 35.7639 45.4385C35.8531 45.351 35.9739 45.3018 36.1 45.3018C36.226 45.3018 36.3469 45.351 36.4361 45.4385C36.5252 45.526 36.5753 45.6447 36.5753 45.7685V49.2424H35.6247ZM50.1398 40.2485H43.939L47.04 34.8739L50.1398 40.2485ZM47.0387 45.4679C46.1189 45.4908 45.2141 45.2348 44.4478 44.7346C43.6815 44.2344 43.0908 43.5144 42.7563 42.6727H51.3212C50.9866 43.5146 50.3957 44.2347 49.6292 44.7349C48.8626 45.2351 47.9576 45.4911 47.0375 45.4679H47.0387Z"/>
</mask>
<path d="M53.0062 40.297L46.0777 44.2964L47.9264 47.4991L51.5638 48.1658L53.0062 40.297ZM48.9411 33.2545L46.1606 25.7533L37.2751 29.0469L42.0125 37.254L48.9411 33.2545ZM50.3953 32.5297L54.7135 39.2642L54.7258 39.2563L54.738 39.2484L50.3953 32.5297ZM49.0374 30.5042L44.6947 23.7856L44.6101 23.8402L44.5269 23.897L49.0374 30.5042ZM46.7289 31.2436L45.4472 39.1403L46.1741 39.2583L46.9104 39.2416L46.7289 31.2436ZM43.2612 29.3588L49.2091 24.0088L48.8595 23.6201L48.4623 23.2802L43.2612 29.3588ZM38.4492 27.1455L37.8463 19.1682L37.7847 19.1729L37.7232 19.1785L38.4492 27.1455ZM37.3345 27.3891H29.3345V38.7013L40.0002 34.9319L37.3345 27.3891ZM34.8655 27.4642L31.873 34.8835L42.8655 39.3173V27.4642H34.8655ZM33.5508 27.1467L34.2777 19.1798L34.2047 19.1731L34.1315 19.1678L33.5508 27.1467ZM28.7388 29.3588L23.5377 23.2802L23.1415 23.6192L22.7926 24.0068L28.7388 29.3588ZM25.2711 31.2424L25.2302 39.2423L25.8949 39.2457L26.5511 39.1394L25.2711 31.2424ZM22.9614 30.503L27.5866 23.9756L27.4438 23.8744L27.2967 23.7796L22.9614 30.503ZM21.6059 32.5297L17.2706 39.2532L17.2812 39.26L17.2919 39.2668L21.6059 32.5297ZM23.0589 33.2533L29.9875 37.2527L34.7251 29.0454L25.8391 25.752L23.0589 33.2533ZM18.9938 40.2958L20.4363 48.1646L24.0736 47.4978L25.9223 44.2952L18.9938 40.2958ZM18 41.4606L10.0003 41.3924L9.99887 41.5586L10.0044 41.7246L18 41.4606ZM24.9625 47.8921L25.1843 39.8952L24.9611 39.889L24.7379 39.8953L24.9625 47.8921ZM31.9225 41.4606L39.9181 41.7247L39.9237 41.5552L39.9222 41.3857L31.9225 41.4606ZM30.93 40.297L24.0015 44.2965L25.8477 47.4948L29.4795 48.1644L30.93 40.297ZM26.9389 33.383L24.0189 25.935L15.3615 29.3291L20.0104 37.3825L26.9389 33.383ZM30.3596 31.1867L25.1657 25.102L24.9751 25.2647L24.795 25.4391L30.3596 31.1867ZM33.3656 29.5624L34.3949 21.6289L34.1902 21.6024L33.9844 21.5864L33.3656 29.5624ZM34.8655 30.2461H42.8655V26.6636L40.1929 24.2779L34.8655 30.2461ZM34.8655 43.1527L38.1656 50.4403L42.8655 48.3121V43.1527H34.8655ZM33.1557 45.7685L25.1558 45.7481L25.1557 45.7583V45.7685H33.1557ZM33.1557 49.2424V57.2424H41.1557V49.2424H33.1557ZM39.0442 49.2424H31.0442V57.2424H39.0442V49.2424ZM39.0442 45.7685H47.0442V45.7583L47.0442 45.7481L39.0442 45.7685ZM37.3345 43.1527H29.3345V48.3121L34.0344 50.4403L37.3345 43.1527ZM37.3345 30.0897L32.4462 23.7569L29.3345 26.1588V30.0897H37.3345ZM38.6344 29.5636L37.9827 21.5902L37.855 21.6007L37.7277 21.6152L38.6344 29.5636ZM41.6404 31.1879L47.2043 25.4396L47.0297 25.2706L46.8452 25.1126L41.6404 31.1879ZM45.0599 33.383L51.9897 37.3803L56.6346 29.3275L47.9795 25.9348L45.0599 33.383ZM41.0725 40.2958L42.5071 48.1661L46.1514 47.5018L48.0023 44.293L41.0725 40.2958ZM40.0775 41.4606L32.0778 41.3909L32.0753 41.6801L32.0936 41.9687L40.0775 41.4606ZM54 41.4606L61.9838 41.9687L62.0024 41.6767L61.9996 41.3841L54 41.4606ZM28.0635 40.2485V48.2485H41.9183L34.9921 36.2492L28.0635 40.2485ZM21.8602 40.2485L14.9309 36.2504L8.00823 48.2485H21.8602V40.2485ZM24.9613 34.8739L31.8899 30.8747L24.9599 18.8687L18.0319 30.8758L24.9613 34.8739ZM24.9613 45.4679L25.1607 37.4704L24.9613 37.4654L24.7618 37.4704L24.9613 45.4679ZM20.6788 42.6727V34.6727H8.89063L13.2445 45.6274L20.6788 42.6727ZM29.2437 42.6727L36.678 45.6274L41.0319 34.6727H29.2437V42.6727ZM35.6247 49.2424H27.6247V57.2424H35.6247V49.2424ZM36.1 45.3018V53.3018V45.3018ZM36.5753 45.7685H28.5753H36.5753ZM36.5753 49.2424V57.2424H44.5753V49.2424H36.5753ZM50.1398 40.2485V48.2485H63.989L57.0698 36.2516L50.1398 40.2485ZM43.939 40.2485L37.0097 36.2504L30.087 48.2485H43.939V40.2485ZM47.04 34.8739L53.97 30.877L47.0414 18.8639L40.1107 30.8758L47.04 34.8739ZM47.0387 45.4679L47.2382 53.4654L47.0387 37.4679V45.4679ZM42.7563 42.6727V34.6727H30.9681L35.322 45.6274L42.7563 42.6727ZM51.3212 42.6727L58.7556 45.6274L63.1093 34.6727H51.3212V42.6727ZM47.0375 45.4679V37.4679L46.8359 53.4653L47.0375 45.4679ZM59.9348 36.2976L55.8696 29.2551L42.0125 37.254L46.0777 44.2964L59.9348 36.2976ZM51.7216 40.7558C52.7686 40.3677 53.7719 39.8679 54.7135 39.2642L46.0771 25.7952C46.1056 25.7769 46.1337 25.7632 46.1606 25.7533L51.7216 40.7558ZM54.738 39.2484C55.7491 38.5949 56.6288 37.746 57.3209 36.7439L44.1558 27.6511C44.6658 26.9125 45.3125 26.2894 46.0526 25.811L54.738 39.2484ZM57.3209 36.7439C58.0132 35.7415 58.5028 34.6073 58.7552 33.4048L43.0963 30.1186C43.2832 29.228 43.6455 28.3899 44.1558 27.6511L57.3209 36.7439ZM58.7552 33.4048C59.0076 32.2021 59.0163 30.9612 58.7807 29.755L43.0774 32.8222C42.9029 31.9288 42.9094 31.0093 43.0963 30.1186L58.7552 33.4048ZM58.7807 29.755C58.5451 28.5489 58.0712 27.4076 57.3926 26.3954L44.1029 35.3052C43.6026 34.5589 43.2519 33.7155 43.0774 32.8222L58.7807 29.755ZM57.3926 26.3954C56.7142 25.3835 55.8459 24.5222 54.8434 23.8547L45.9755 37.1723C45.2414 36.6835 44.603 36.0511 44.1029 35.3052L57.3926 26.3954ZM54.8434 23.8547C53.8412 23.1874 52.7225 22.7252 51.5521 22.4883L48.3791 38.1706C47.5263 37.998 46.7092 37.6609 45.9755 37.1723L54.8434 23.8547ZM51.5521 22.4883C50.3817 22.2515 49.1765 22.2435 48.0033 22.4644L50.9642 38.188C50.1095 38.349 49.2318 38.3431 48.3791 38.1706L51.5521 22.4883ZM48.0033 22.4644C46.83 22.6853 45.7054 23.1322 44.6947 23.7856L53.3801 37.2229C52.6402 37.7012 51.819 38.0271 50.9642 38.188L48.0033 22.4644ZM44.5269 23.897C45.134 23.4825 45.8367 23.2618 46.5474 23.2457L46.9104 39.2416C49.2745 39.1879 51.5828 38.4529 53.5479 37.1115L44.5269 23.897ZM48.0106 23.347C48.4494 23.4182 48.8772 23.6398 49.2091 24.0088L37.3134 34.7088C39.4465 37.0804 42.3238 38.6333 45.4472 39.1403L48.0106 23.347ZM48.4623 23.2802C47.5572 22.5058 43.6294 18.7311 37.8463 19.1682L39.0521 35.1227C38.6377 35.154 38.2369 35.1104 37.8893 35.0215C37.5583 34.9368 37.3457 34.8294 37.2704 34.788C37.2033 34.7511 37.2293 34.7575 37.3791 34.8723C37.5406 34.9962 37.7257 35.1512 38.0602 35.4373L48.4623 23.2802ZM37.7232 19.1785C36.6822 19.2733 35.656 19.4974 34.6688 19.8463L40.0002 34.9319C39.7322 35.0266 39.4551 35.0869 39.1752 35.1124L37.7232 19.1785ZM45.3345 27.3891V26.2121H29.3345V27.3891H45.3345ZM45.3345 26.2121C45.3345 23.7213 44.3254 21.3626 42.5778 19.6467L31.368 31.0633C30.0835 29.8021 29.3345 28.06 29.3345 26.2121H45.3345ZM42.5778 19.6467C40.8352 17.9357 38.5024 17 36.1 17V33C34.3524 33 32.6475 32.3197 31.368 31.0633L42.5778 19.6467ZM36.1 17C33.6975 17 31.3647 17.9357 29.6222 19.6467L40.832 31.0633C39.5525 32.3197 37.8476 33 36.1 33V17ZM29.6222 19.6467C27.8747 21.3625 26.8655 23.7212 26.8655 26.2121H42.8655C42.8655 28.0601 42.1165 29.8021 40.832 31.0633L29.6222 19.6467ZM26.8655 26.2121V27.4642H42.8655V26.2121H26.8655ZM37.8581 20.045C36.7121 19.5828 35.5056 19.2918 34.2777 19.1798L32.8238 35.1136C32.4997 35.084 32.1794 35.007 31.873 34.8835L37.8581 20.045ZM34.1315 19.1678C28.3564 18.7475 24.4559 22.4946 23.5377 23.2802L33.9398 35.4373C34.2764 35.1494 34.4604 34.9952 34.6213 34.8717C34.7698 34.7578 34.7938 34.7528 34.7245 34.7909C34.6465 34.8339 34.434 34.9407 34.1057 35.0246C33.7614 35.1126 33.3699 35.1547 32.9701 35.1256L34.1315 19.1678ZM22.7926 24.0068C23.1246 23.638 23.5524 23.4166 23.9911 23.3455L26.5511 39.1394C29.6741 38.6331 32.5513 37.0812 34.6849 34.7108L22.7926 24.0068ZM25.3121 23.2425C26.1146 23.2466 26.9098 23.496 27.5866 23.9756L18.3362 37.0305C20.3584 38.4634 22.7685 39.2297 25.2302 39.2423L25.3121 23.2425ZM27.2967 23.7796C25.2584 22.4653 22.7946 22.0104 20.4381 22.4899L23.6282 38.1687C21.913 38.5176 20.1169 38.1878 18.6261 37.2265L27.2967 23.7796ZM20.4381 22.4899C18.0793 22.9698 15.9694 24.3586 14.6018 26.4034L27.9014 35.2984C26.8933 36.8057 25.3457 37.8192 23.6282 38.1687L20.4381 22.4899ZM14.6018 26.4034C13.2304 28.4539 12.7332 30.9792 13.2471 33.4143L28.9023 30.1104C29.2833 31.9158 28.9133 33.7854 27.9014 35.2984L14.6018 26.4034ZM13.2471 33.4143C13.7603 35.8463 15.2273 37.9357 17.2706 39.2532L25.9412 25.8062C27.4371 26.7708 28.5219 28.3081 28.9023 30.1104L13.2471 33.4143ZM17.2919 39.2668C18.2321 39.8689 19.2337 40.3674 20.2787 40.7547L25.8391 25.752C25.865 25.7616 25.8922 25.7748 25.92 25.7926L17.2919 39.2668ZM16.1304 29.2539L12.0652 36.2963L25.9223 44.2952L29.9875 37.2527L16.1304 29.2539ZM17.5512 32.4269C15.484 32.8059 13.5864 33.8835 12.1979 35.5109L24.3702 45.8954C23.3444 47.0978 21.9484 47.8874 20.4363 48.1646L17.5512 32.4269ZM12.1979 35.5109C10.8068 37.1416 10.0188 39.2197 10.0003 41.3924L25.9997 41.5288C25.9859 43.1471 25.3987 44.6897 24.3702 45.8954L12.1979 35.5109ZM10.0044 41.7246C10.1338 45.6453 11.8404 49.3234 14.7 51.9649L25.5566 40.2119C25.8063 40.4426 25.9823 40.7925 25.9956 41.1966L10.0044 41.7246ZM14.7 51.9649C17.5546 54.6018 21.3272 55.9974 25.1871 55.889L24.7379 39.8953C25.0159 39.8875 25.312 39.9859 25.5566 40.2119L14.7 51.9649ZM24.7407 55.889C28.5998 55.9961 32.371 54.5998 35.2244 51.9631L24.3657 40.212C24.6103 39.986 24.9063 39.8875 25.1843 39.8952L24.7407 55.889ZM35.2244 51.9631C38.0829 49.3217 39.7887 45.6445 39.9181 41.7247L23.9269 41.1965C23.9402 40.7925 24.1161 40.4427 24.3657 40.212L35.2244 51.9631ZM39.9222 41.3857C39.9018 39.216 39.1142 37.1412 37.7252 35.5126L25.5519 45.8958C24.5248 44.6917 23.938 43.1515 23.9229 41.5355L39.9222 41.3857ZM37.7252 35.5126C36.3388 33.8872 34.4444 32.8101 32.3805 32.4296L29.4795 48.1644C27.9697 47.886 26.5762 47.0968 25.5519 45.8958L37.7252 35.5126ZM37.8585 36.2975L33.8674 29.3835L20.0104 37.3825L24.0015 44.2965L37.8585 36.2975ZM29.8589 40.8311C32.1156 39.9464 34.179 38.624 35.9243 36.9343L24.795 25.4391C24.5806 25.6466 24.318 25.8177 24.0189 25.935L29.8589 40.8311ZM35.5536 37.2713C35.835 37.0311 35.9859 36.904 36.1076 36.8076C36.2254 36.7143 36.196 36.7464 36.065 36.8266C35.86 36.9521 34.6229 37.684 32.7468 37.5385L33.9844 21.5864C31.1084 21.3633 28.9022 22.4515 27.7112 23.1806C26.5788 23.8739 25.5845 24.7445 25.1657 25.102L35.5536 37.2713ZM32.3363 37.4959C31.3111 37.3629 30.3329 36.9237 29.5381 36.2142L40.1929 24.2779C38.5633 22.8233 36.5385 21.907 34.3949 21.6289L32.3363 37.4959ZM26.8655 30.2461V43.1527H42.8655V30.2461H26.8655ZM31.5654 35.8651C29.6847 36.7168 28.0692 38.0886 26.9254 39.8385L40.3182 48.5926C39.7802 49.4156 39.0278 50.0499 38.1656 50.4403L31.5654 35.8651ZM26.9254 39.8385C25.7805 41.59 25.1611 43.6408 25.1558 45.7481L41.1557 45.7888C41.1532 46.7948 40.8572 47.7679 40.3182 48.5926L26.9254 39.8385ZM25.1557 45.7685V49.2424H41.1557V45.7685H25.1557ZM33.1557 41.2424H31.1522V57.2424H33.1557V41.2424ZM31.1522 41.2424C28.7498 41.2424 26.4169 42.1781 24.6744 43.8891L35.8842 55.3058C34.6046 56.5621 32.8998 57.2424 31.1522 57.2424V41.2424ZM24.6744 43.8891C22.9268 45.605 21.9177 47.9637 21.9177 50.4545H37.9177C37.9177 52.3025 37.1687 54.0445 35.8842 55.3058L24.6744 43.8891ZM21.9177 50.4545C21.9177 52.9454 22.9268 55.3041 24.6744 57.02L35.8842 45.6033C37.1687 46.8646 37.9177 48.6066 37.9177 50.4545H21.9177ZM24.6744 57.02C26.4169 58.731 28.7498 59.6667 31.1522 59.6667V43.6667C32.8998 43.6667 34.6046 44.347 35.8842 45.6033L24.6744 57.02ZM31.1522 59.6667H40.9663V43.6667H31.1522V59.6667ZM40.9663 59.6667C43.3687 59.6667 45.7016 58.731 47.4442 57.02L36.2343 45.6033C37.5139 44.347 39.2187 43.6667 40.9663 43.6667V59.6667ZM47.4442 57.02C49.1917 55.3041 50.2008 52.9454 50.2008 50.4545H34.2008C34.2008 48.6066 34.9498 46.8646 36.2343 45.6033L47.4442 57.02ZM50.2008 50.4545C50.2008 47.9637 49.1917 45.605 47.4442 43.8891L36.2343 55.3058C34.9498 54.0445 34.2008 52.3025 34.2008 50.4545H50.2008ZM47.4442 43.8891C45.7016 42.1781 43.3687 41.2424 40.9663 41.2424V57.2424C39.2187 57.2424 37.5139 56.5621 36.2343 55.3058L47.4442 43.8891ZM40.9663 41.2424H39.0442V57.2424H40.9663V41.2424ZM47.0442 49.2424V45.7685H31.0442V49.2424H47.0442ZM47.0442 45.7481C47.0388 43.6408 46.4195 41.59 45.2746 39.8385L31.8818 48.5926C31.3428 47.768 31.0468 46.7948 31.0443 45.7888L47.0442 45.7481ZM45.2746 39.8385C44.1308 38.0886 42.5153 36.7168 40.6346 35.8651L34.0344 50.4403C33.1722 50.0499 32.4198 49.4156 31.8818 48.5926L45.2746 39.8385ZM45.3345 43.1527V30.0897H29.3345V43.1527H45.3345ZM42.2227 36.4225C41.4351 37.0305 40.5061 37.402 39.5411 37.5121L37.7277 21.6152C35.8138 21.8335 33.9849 22.5692 32.4462 23.7569L42.2227 36.4225ZM39.286 37.5371C37.4416 37.6878 36.1949 36.9763 35.9149 36.8029C35.7696 36.7129 35.7304 36.6721 35.8519 36.7698C35.9833 36.8756 36.1283 37 36.4355 37.2632L46.8452 25.1126C46.4877 24.8063 45.4709 23.9012 44.3395 23.2004C43.0824 22.4219 40.8654 21.3546 37.9827 21.5902L39.286 37.5371ZM36.0764 36.9362C37.8213 38.6251 39.8842 39.9469 42.1403 40.8312L47.9795 25.9348C47.6807 25.8177 47.4184 25.6469 47.2043 25.4396L36.0764 36.9362ZM38.1301 29.3858L34.1427 36.2985L48.0023 44.293L51.9897 37.3803L38.1301 29.3858ZM39.6379 32.4254C37.5692 32.8025 35.6694 33.8793 34.2791 35.5069L46.445 45.8988C45.4178 47.1013 44.0203 47.8903 42.5071 48.1661L39.6379 32.4254ZM34.2791 35.5069C32.8861 37.1377 32.0967 39.2169 32.0778 41.3909L48.0772 41.5303C48.0631 43.1496 47.4749 44.693 46.445 45.8988L34.2791 35.5069ZM32.0936 41.9687C32.3364 45.7832 34.0498 49.3323 36.8389 51.9051L47.6873 40.1445C47.8897 40.3313 48.0399 40.616 48.0613 40.9525L32.0936 41.9687ZM36.8389 51.9051C39.6237 54.4739 43.2731 55.882 47.0387 55.882V39.882C47.2554 39.882 47.4891 39.9617 47.6873 40.1445L36.8389 51.9051ZM47.0387 55.882C50.8044 55.882 54.4538 54.4739 57.2386 51.9051L46.3902 40.1445C46.5884 39.9617 46.8221 39.882 47.0387 39.882V55.882ZM57.2386 51.9051C60.0277 49.3323 61.7411 45.7832 61.9838 41.9687L46.0162 40.9525C46.0376 40.616 46.1878 40.3313 46.3902 40.1445L57.2386 51.9051ZM61.9996 41.3841C61.9789 39.2131 61.1899 37.1372 59.799 35.5086L47.6321 45.8992C46.6037 44.6951 46.0158 43.1541 46.0004 41.5371L61.9996 41.3841ZM59.799 35.5086C58.4108 33.883 56.5143 32.8067 54.4487 32.4281L51.5638 48.1658C50.0528 47.8889 48.6578 47.1003 47.6321 45.8992L59.799 35.5086ZM28.0635 32.2485H21.8602V48.2485H28.0635V32.2485ZM28.7895 44.2466L31.8906 38.872L18.0319 30.8758L14.9309 36.2504L28.7895 44.2466ZM18.0326 38.8732L21.1349 44.2478L34.9921 36.2492L31.8899 30.8747L18.0326 38.8732ZM24.7618 37.4704C25.4527 37.4531 26.1439 37.6443 26.743 38.0353L17.9977 51.4338C20.1293 52.8252 22.6301 53.5285 25.1607 53.4654L24.7618 37.4704ZM26.743 38.0353C27.3438 38.4275 27.8312 39.0086 28.1132 39.718L13.2445 45.6274C14.1955 48.0203 15.8642 50.0413 17.9977 51.4338L26.743 38.0353ZM20.6788 50.6727H29.2437V34.6727H20.6788V50.6727ZM21.8093 39.718C22.0913 39.0086 22.5787 38.4275 23.1795 38.0353L31.9248 51.4338C34.0583 50.0413 35.727 48.0203 36.678 45.6274L21.8093 39.718ZM23.1795 38.0353C23.7786 37.6443 24.4698 37.4531 25.1607 37.4704L24.7618 53.4654C27.2925 53.5285 29.7932 52.8252 31.9248 51.4338L23.1795 38.0353ZM43.6247 49.2424V45.7685H27.6247V49.2424H43.6247ZM43.6247 45.7685C43.6247 47.8141 42.7958 49.7458 41.3688 51.1468L30.159 39.7302C28.5538 41.3063 27.6247 43.4753 27.6247 45.7685H43.6247ZM41.3688 51.1468C39.9469 52.543 38.0489 53.3018 36.1 53.3018V37.3018C33.899 37.3018 31.7592 38.1589 30.159 39.7302L41.3688 51.1468ZM36.1 53.3018C34.1511 53.3018 32.2531 52.543 30.8311 51.1468L42.041 39.7302C40.4408 38.1589 38.301 37.3018 36.1 37.3018V53.3018ZM30.8311 51.1468C29.4043 49.7458 28.5753 47.8142 28.5753 45.7685H44.5753C44.5753 43.4753 43.6461 41.3062 42.041 39.7302L30.8311 51.1468ZM28.5753 45.7685V49.2424H44.5753V45.7685H28.5753ZM36.5753 41.2424H35.6247V57.2424H36.5753V41.2424ZM50.1398 32.2485H43.939V48.2485H50.1398V32.2485ZM50.8683 44.2466L53.9693 38.872L40.1107 30.8758L37.0097 36.2504L50.8683 44.2466ZM40.11 38.8708L43.2098 44.2454L57.0698 36.2516L53.97 30.877L40.11 38.8708ZM46.8393 37.4704C47.5302 37.4531 48.2214 37.6443 48.8205 38.0353L40.0752 51.4338C42.2068 52.8252 44.7075 53.5285 47.2382 53.4654L46.8393 37.4704ZM48.8205 38.0353C49.4213 38.4275 49.9087 39.0086 50.1907 39.718L35.322 45.6274C36.273 48.0203 37.9417 50.0413 40.0752 51.4338L48.8205 38.0353ZM42.7563 50.6727H51.3212V34.6727H42.7563V50.6727ZM43.8868 39.7181C44.1688 39.0085 44.6564 38.4273 45.2574 38.0351L54.0009 51.4348C56.1351 50.0422 57.8043 48.0208 58.7556 45.6274L43.8868 39.7181ZM45.2574 38.0351C45.8566 37.6441 46.5481 37.453 47.2391 37.4704L46.8359 53.4653C49.3671 53.5291 51.8686 52.8261 54.0009 51.4348L45.2574 38.0351ZM47.0375 53.4679H47.0387V37.4679H47.0375V53.4679Z" fill="#173F35" mask="url(#path-3-inside-1_196_325)"/>
</g>
</g>
</svg>
