<svg width="63" height="63" viewBox="0 0 63 63" fill="none" xmlns="http://www.w3.org/2000/svg">
<g id="Frame" clip-path="url(#clip0_196_330)">
<g id="Group">
<path id="Vector" d="M32.6583 25.9461L32.6582 25.9462L22.3616 36.2428C22.2517 36.3526 22.1109 36.4068 21.9663 36.4068C21.8215 36.4068 21.6807 36.3526 21.5712 36.243L21.571 36.2428L15.393 30.0648L15.3929 30.0647C15.1743 29.8462 15.1743 29.4929 15.3929 29.2744C15.6119 29.0555 15.9651 29.0557 16.1835 29.2742L16.1836 29.2743L20.9056 33.9962L21.9663 35.0568L23.0269 33.9962L31.8676 25.1556L31.8677 25.1555C32.0863 24.9369 32.4395 24.9369 32.6581 25.1555C32.877 25.3744 32.8767 25.7277 32.6583 25.9461Z" stroke="#173F35" stroke-width="3"/>
<path id="Vector_2" d="M24.7149 1.24784L24.715 1.24791C29.3054 5.83817 35.4229 8.50586 41.9418 8.50586H46.2656C46.7335 8.50586 47.1113 8.88355 47.1113 9.35156V31.5C47.1113 47.5185 35.4984 54.9773 27.4556 60.0222L27.4552 60.0224C27.2823 60.131 27.0836 60.2626 26.8593 60.4111C26.4907 60.6551 26.0533 60.9447 25.5491 61.2523C25.1706 61.4832 24.8122 61.6868 24.5143 61.8296C24.3653 61.901 24.2474 61.9494 24.1607 61.9783C24.1438 61.9839 24.1297 61.9882 24.1181 61.9915C24.1061 61.988 24.0914 61.9835 24.0736 61.9775C23.9846 61.9475 23.8637 61.8974 23.7111 61.8238C23.4062 61.6767 23.039 61.4673 22.6519 61.2306C22.1359 60.9152 21.6927 60.6217 21.3199 60.3747C21.0906 60.2228 20.8879 60.0885 20.7111 59.9776C12.6959 54.9362 1.12305 47.4853 1.12305 31.5V9.35156C1.12305 8.88342 1.50061 8.50586 1.96875 8.50586H6.29262C12.8114 8.50586 18.929 5.83817 23.5194 1.24791L23.5194 1.24784C23.8498 0.917388 24.3845 0.917388 24.7149 1.24784ZM6.50586 31.5C6.50586 41.212 14.4047 49.1113 24.1172 49.1113C33.8292 49.1113 41.7285 41.212 41.7285 31.5C41.7285 21.7875 33.8292 13.8887 24.1172 13.8887C14.4047 13.8887 6.50586 21.7875 6.50586 31.5Z" stroke="#173F35" stroke-width="2"/>
</g>
</g>
<defs>
<clipPath id="clip0_196_330">
<rect width="63" height="63" fill="white"/>
</clipPath>
</defs>
</svg>
