<svg width="75" height="75" viewBox="0 0 75 75" fill="none" xmlns="http://www.w3.org/2000/svg">
<g id="Frame">
<g id="Group">
<path id="Vector" d="M68.037 53.383L45.8786 31.2223L51.6888 25.4121C52.5767 26.0708 53.6802 26.3706 54.7794 26.2518C55.8785 26.133 56.8925 25.6042 57.6191 24.771C58.3457 23.9378 58.7316 22.8613 58.6998 21.7562C58.6679 20.6511 58.2207 19.5986 57.4474 18.8086L43.0972 4.45313C42.3084 3.67252 41.2535 3.21924 40.1443 3.18431C39.0351 3.14938 37.9538 3.53539 37.1175 4.26482C36.2811 4.99426 35.7517 6.01309 35.6356 7.11674C35.5194 8.22038 35.8251 9.3271 36.4913 10.2147L18.2317 28.4766C17.3442 27.8104 16.2375 27.5047 15.1338 27.6208C14.0302 27.737 13.0113 28.2664 12.2819 29.1027C11.5525 29.939 11.1665 31.0204 11.2014 32.1296C11.2363 33.2387 11.6896 34.2936 12.4702 35.0824L26.8204 49.4332C27.6089 50.2155 28.6643 50.6703 29.7745 50.7059C30.8846 50.7416 31.9671 50.3556 32.8042 49.6255C33.6412 48.8954 34.1708 47.8754 34.2863 46.7707C34.4018 45.666 34.0948 44.5586 33.4269 43.6711L39.2364 37.8615L61.3978 60.0229C61.8335 60.4591 62.351 60.8052 62.9206 61.0413C63.4902 61.2774 64.1008 61.3989 64.7174 61.3989C65.334 61.3989 65.9445 61.2774 66.5142 61.0413C67.0838 60.8052 67.6012 60.4591 68.037 60.0229C68.4734 59.5871 68.8196 59.0696 69.0558 58.4999C69.292 57.9303 69.4136 57.3196 69.4136 56.7029C69.4136 56.0862 69.292 55.4756 69.0558 54.9059C68.8196 54.3363 68.4734 53.8188 68.037 53.383ZM38.33 5.90567C38.7703 5.46686 39.3666 5.22046 39.9882 5.22046C40.6098 5.22046 41.2061 5.46686 41.6464 5.90567L55.9978 20.2559C56.2155 20.4736 56.3882 20.7321 56.506 21.0165C56.6238 21.301 56.6845 21.6059 56.6845 21.9138C56.6845 22.2217 56.6238 22.5266 56.506 22.811C56.3882 23.0955 56.2155 23.354 55.9978 23.5717C55.78 23.7894 55.5216 23.9621 55.2371 24.0799C54.9526 24.1978 54.6478 24.2584 54.3399 24.2584C54.0319 24.2584 53.7271 24.1978 53.4426 24.0799C53.1581 23.9621 52.8997 23.7894 52.6819 23.5717L38.3312 9.22149C37.8924 8.78129 37.646 8.18511 37.646 7.56358C37.646 6.94205 37.8924 6.34587 38.3312 5.90567H38.33ZM37.9081 11.6994L50.204 23.9941L32.0083 42.1875L19.7136 29.8951L37.9081 11.6994ZM31.5864 47.983C31.1464 48.4221 30.5501 48.6687 29.9285 48.6687C29.3069 48.6687 28.7107 48.4221 28.2706 47.983L13.9198 33.6328C13.7021 33.4151 13.5294 33.1565 13.4116 32.872C13.2938 32.5875 13.2332 32.2826 13.2332 31.9747C13.2332 31.6668 13.2939 31.3619 13.4118 31.0774C13.5296 30.7929 13.7024 30.5344 13.9201 30.3167C14.1379 30.099 14.3964 29.9263 14.6809 29.8085C14.9654 29.6907 15.2703 29.63 15.5782 29.6301C15.8862 29.6301 16.1911 29.6908 16.4756 29.8086C16.76 29.9265 17.0185 30.0992 17.2362 30.317L31.5864 44.6678C31.8042 44.8854 31.9769 45.1438 32.0947 45.4283C32.2126 45.7127 32.2732 46.0175 32.2732 46.3254C32.2732 46.6333 32.2126 46.9381 32.0947 47.2225C31.9769 47.507 31.8042 47.7654 31.5864 47.983ZM44.4261 32.6725L47.3821 35.6291L43.6433 39.368L40.6866 36.4113L44.4261 32.6725ZM66.5868 58.5709C66.3413 58.8165 66.0498 59.0113 65.729 59.1442C65.4082 59.2771 65.0644 59.3456 64.7171 59.3456C64.3698 59.3456 64.026 59.2771 63.7052 59.1442C63.3844 59.0113 63.0929 58.8165 62.8474 58.5709L45.0935 40.817L48.8323 37.0775L66.5862 54.8315C66.8325 55.0767 67.0278 55.3682 67.1612 55.6891C67.2945 56.01 67.3632 56.3541 67.3632 56.7016C67.3633 57.0492 67.2947 57.3933 67.1615 57.7143C67.0283 58.0352 66.833 58.3267 66.5868 58.5721V58.5709Z" fill="#173F35"/>
<path id="Vector_2" d="M40.3669 61.0922H39.5021V56.1451C39.5011 55.4281 39.2158 54.7406 38.7086 54.2337C38.2014 53.7267 37.5139 53.4417 36.7968 53.441H12.747C12.03 53.4418 11.3427 53.727 10.8357 54.2339C10.3288 54.7409 10.0436 55.4282 10.0429 56.1451V61.0922H9.17803C8.22607 61.0933 7.31341 61.4719 6.64027 62.1451C5.96713 62.8182 5.58849 63.7309 5.5874 64.6828V70.8041C5.58733 70.9388 5.6138 71.0722 5.6653 71.1966C5.7168 71.3211 5.79233 71.4341 5.88756 71.5294C5.98279 71.6246 6.09586 71.7001 6.2203 71.7516C6.34474 71.8031 6.47812 71.8296 6.61279 71.8295H42.9327C43.0674 71.8296 43.2008 71.8031 43.3252 71.7516C43.4496 71.7001 43.5627 71.6246 43.6579 71.5294C43.7532 71.4341 43.8287 71.3211 43.8802 71.1966C43.9317 71.0722 43.9582 70.9388 43.9581 70.8041V64.6828C43.957 63.7308 43.5783 62.818 42.905 62.1449C42.2318 61.4717 41.319 61.0931 40.3669 61.0922ZM12.0937 56.1451C12.0938 55.9719 12.1627 55.8058 12.2852 55.6833C12.4077 55.5609 12.5737 55.492 12.747 55.4918H36.7968C36.9701 55.4918 37.1363 55.5606 37.259 55.6831C37.3816 55.8056 37.4505 55.9718 37.4507 56.1451V61.0922H12.0937V56.1451ZM41.9073 69.7787H7.63818V64.6811C7.63849 64.2728 7.80083 63.8813 8.08954 63.5926C8.37825 63.3039 8.76973 63.1415 9.17803 63.1412H40.3669C40.7752 63.1417 41.1667 63.3041 41.4554 63.5927C41.7442 63.8814 41.9067 64.2728 41.9073 64.6811V69.7787Z" fill="#173F35"/>
</g>
</g>
</svg>
