<svg width="67" height="57" viewBox="0 0 67 57" fill="none" xmlns="http://www.w3.org/2000/svg">
<g id="Group">
<path id="Vector" d="M66.9859 15.213C66.9853 14.0332 66.5348 12.9926 65.6829 12.2043L55.4989 2.77659C54.2322 1.60427 52.635 0.406067 50.3895 0.406067H50.3871C48.1402 0.406875 46.5429 1.60669 45.2768 2.78037L35.0994 12.2152C34.2479 13.0044 33.7981 14.0453 33.7985 15.2252L33.8032 27.3339H27.0442C28.2675 24.7176 29.1195 20.5849 28.1626 17.4903C27.4892 15.3124 26.0062 13.8766 23.874 13.338C23.7393 13.304 23.5993 13.2979 23.4623 13.3201C23.3253 13.3423 23.1939 13.3923 23.0758 13.4672C22.9577 13.5421 22.8552 13.6404 22.7743 13.7565C22.6934 13.8725 22.6357 14.0039 22.6045 14.1431C22.4884 14.6624 22.381 15.1492 22.2801 15.6067C21.0227 21.3092 20.8611 22.042 17.3879 24.3798C14.9343 26.0313 14.7602 26.2445 13.2342 28.5372C13.0613 28.7973 12.8879 29.057 12.7139 29.3164C12.096 30.2368 11.3055 30.6519 10.1567 30.6623L10.0681 30.6626V30.4044C10.0681 29.0616 9.00731 27.9691 7.7033 27.9691H2.36463C1.06075 27.9691 0 29.0616 0 30.4044V54.1586C0 55.5015 1.06075 56.5939 2.36463 56.5939H7.70343C9.00731 56.5939 10.0682 55.5015 10.0682 54.1586V53.0535C10.5401 53.223 11.0118 53.4039 11.4976 53.5906C13.8759 54.5054 16.5715 55.5423 20.5738 55.5423H34.4706C35.063 55.5423 35.6267 55.415 36.1385 55.1865C36.641 55.4193 37.1854 55.5423 37.7435 55.5423L63.0709 55.5333C65.2382 55.5324 67.0008 53.7158 66.9999 51.4839L66.9859 15.213ZM7.97444 54.1586C7.97444 54.3099 7.85038 54.4376 7.70343 54.4376H2.36463C2.2178 54.4376 2.09375 54.3099 2.09375 54.1586V30.4044C2.09375 30.2532 2.2178 30.1254 2.36463 30.1254H7.70343C7.85038 30.1254 7.97444 30.2532 7.97444 30.4044V54.1586ZM20.5738 53.3861C16.9498 53.3861 14.5505 52.4631 12.2302 51.5706C11.5298 51.3012 10.8115 51.025 10.0683 50.7784V32.8188L10.1692 32.8186C11.998 32.8021 13.4338 32.0362 14.4364 30.5424C14.6306 30.2531 14.804 29.9926 14.9613 29.7563C16.3685 27.6419 16.3685 27.6419 18.5336 26.1846C22.7155 23.3697 23.0238 21.971 24.3219 16.0842L24.3804 15.8185C25.2432 16.2902 25.8319 17.0587 26.1677 18.1445C27.1554 21.3389 25.5978 26.2569 24.3791 27.7061C24.2478 27.8623 24.1628 28.0541 24.1343 28.2587C24.1058 28.4633 24.135 28.6719 24.2183 28.8599C24.3017 29.0479 24.4358 29.2072 24.6046 29.3189C24.7734 29.4307 24.9699 29.4901 25.1705 29.4901H37.1389C38.3053 29.4901 39.2541 30.4673 39.2541 31.6685C39.2541 32.8696 38.3053 33.8469 37.1389 33.8469H28.8876C28.61 33.8469 28.3437 33.9605 28.1473 34.1627C27.951 34.3649 27.8407 34.6391 27.8407 34.9251C27.8407 35.211 27.951 35.4852 28.1473 35.6874C28.3437 35.8896 28.61 36.0032 28.8876 36.0032H38.8681C40.0345 36.0032 40.9833 36.9804 40.9833 38.1815C40.9833 39.3827 40.0345 40.36 38.8681 40.36H28.8876C28.61 40.36 28.3437 40.4736 28.1473 40.6758C27.951 40.878 27.8407 41.1522 27.8407 41.4382C27.8407 41.7241 27.951 41.9983 28.1473 42.2005C28.3437 42.4027 28.61 42.5163 28.8876 42.5163H37.7812C38.9475 42.5163 39.8964 43.4935 39.8964 44.6946C39.8964 45.8958 38.9475 46.873 37.7812 46.873H28.8876C28.61 46.873 28.3437 46.9866 28.1473 47.1888C27.951 47.3909 27.8407 47.6652 27.8407 47.9511C27.8407 48.237 27.951 48.5113 28.1473 48.7135C28.3437 48.9156 28.61 49.0292 28.8876 49.0292H34.4707C35.6371 49.0292 36.5861 50.0066 36.5861 51.2077C36.5861 52.4089 35.6372 53.3861 34.4707 53.3861H20.5738ZM63.0702 53.377L38.1073 53.3859C38.4827 52.7252 38.6803 51.9733 38.6797 51.2077C38.6806 50.4373 38.481 49.6808 38.1015 49.0168C40.2733 48.8476 41.9902 46.9737 41.9902 44.6946C41.9911 43.6773 41.643 42.6923 41.0073 41.9136C42.2452 41.1581 43.0771 39.7679 43.0771 38.1815C43.0771 36.4063 42.0353 34.877 40.5485 34.2074C41.069 33.4695 41.3489 32.5806 41.3479 31.6685C41.3479 29.2784 39.4597 27.3339 37.1389 27.3339H35.8971L35.8924 15.2245C35.8922 14.6574 36.091 14.1973 36.5002 13.8179L46.6777 4.383C48.0722 3.09019 49.1472 2.56286 50.3881 2.56232H50.3896C51.6294 2.56232 52.7045 3.08912 54.0995 4.38017L64.2835 13.8078C64.693 14.1869 64.8921 14.6469 64.8924 15.214L64.9062 51.4847C64.9066 52.5278 64.083 53.3766 63.0702 53.377ZM50.3907 14.8628C52.4463 14.8628 54.1189 13.1405 54.1189 11.0233C54.1189 8.90614 52.4465 7.18384 50.3907 7.18384C48.3349 7.18384 46.6624 8.90614 46.6624 11.0233C46.6624 13.1405 48.3349 14.8628 50.3907 14.8628ZM50.3907 9.33995C51.2919 9.33995 52.0251 10.0952 52.0251 11.0232C52.0251 11.9512 51.2919 12.7064 50.3907 12.7064C49.4894 12.7064 48.7561 11.9512 48.7561 11.0232C48.7561 10.0952 49.4894 9.33995 50.3907 9.33995Z" fill="#173F35"/>
</g>
</svg>
