<svg width="65" height="65" viewBox="0 0 65 65" fill="none" xmlns="http://www.w3.org/2000/svg">
<g clip-path="url(#clip0_196_338)">
<path d="M54.1667 35.3058V9.75C54.1649 8.31394 53.5937 6.93719 52.5783 5.92174C51.5628 4.90629 50.1861 4.33505 48.75 4.33333H46.5833V3.25C46.5833 2.38805 46.2409 1.5614 45.6314 0.951903C45.0219 0.34241 44.1953 0 43.3333 0C42.4714 0 41.6447 0.34241 41.0352 0.951903C40.4257 1.5614 40.0833 2.38805 40.0833 3.25V4.33333H35.75V3.25C35.75 2.38805 35.4076 1.5614 34.7981 0.951903C34.1886 0.34241 33.362 0 32.5 0C31.638 0 30.8114 0.34241 30.2019 0.951903C29.5924 1.5614 29.25 2.38805 29.25 3.25V4.33333H24.9167V3.25C24.9167 2.38805 24.5743 1.5614 23.9648 0.951903C23.3553 0.34241 22.5286 0 21.6667 0C20.8047 0 19.9781 0.34241 19.3686 0.951903C18.7591 1.5614 18.4167 2.38805 18.4167 3.25V4.33333H14.0833V3.25C14.0833 2.38805 13.7409 1.5614 13.1314 0.951903C12.5219 0.34241 11.6953 0 10.8333 0C9.97138 0 9.14473 0.34241 8.53524 0.951903C7.92574 1.5614 7.58333 2.38805 7.58333 3.25V4.33333H5.41667C3.98061 4.33505 2.60385 4.90629 1.5884 5.92174C0.572955 6.93719 0.00172018 8.31394 0 9.75L0 49.8333C0.00172018 51.2694 0.572955 52.6461 1.5884 53.6616C2.60385 54.677 3.98061 55.2483 5.41667 55.25H35.6839C36.6046 57.6564 38.1235 59.7885 40.0971 61.4447C42.0708 63.101 44.434 64.2269 46.9637 64.716C49.4934 65.205 52.106 65.0413 54.5548 64.24C57.0036 63.4388 59.2077 62.0266 60.9591 60.1368C62.7104 58.247 63.9511 55.942 64.564 53.4394C65.1769 50.9368 65.1418 48.3193 64.462 45.8341C63.7822 43.3489 62.4801 41.0779 60.6787 39.2358C58.8773 37.3936 56.6361 36.0411 54.1667 35.3058ZM42.25 3.25C42.25 2.96268 42.3641 2.68713 42.5673 2.48397C42.7705 2.2808 43.046 2.16667 43.3333 2.16667C43.6207 2.16667 43.8962 2.2808 44.0994 2.48397C44.3025 2.68713 44.4167 2.96268 44.4167 3.25V7.58333C44.4167 7.87065 44.3025 8.1462 44.0994 8.34937C43.8962 8.55253 43.6207 8.66667 43.3333 8.66667C43.046 8.66667 42.7705 8.55253 42.5673 8.34937C42.3641 8.1462 42.25 7.87065 42.25 7.58333V3.25ZM31.4167 3.25C31.4167 2.96268 31.5308 2.68713 31.734 2.48397C31.9371 2.2808 32.2127 2.16667 32.5 2.16667C32.7873 2.16667 33.0629 2.2808 33.266 2.48397C33.4692 2.68713 33.5833 2.96268 33.5833 3.25V7.58333C33.5833 7.87065 33.4692 8.1462 33.266 8.34937C33.0629 8.55253 32.7873 8.66667 32.5 8.66667C32.2127 8.66667 31.9371 8.55253 31.734 8.34937C31.5308 8.1462 31.4167 7.87065 31.4167 7.58333V3.25ZM20.5833 3.25C20.5833 2.96268 20.6975 2.68713 20.9006 2.48397C21.1038 2.2808 21.3793 2.16667 21.6667 2.16667C21.954 2.16667 22.2295 2.2808 22.4327 2.48397C22.6359 2.68713 22.75 2.96268 22.75 3.25V7.58333C22.75 7.87065 22.6359 8.1462 22.4327 8.34937C22.2295 8.55253 21.954 8.66667 21.6667 8.66667C21.3793 8.66667 21.1038 8.55253 20.9006 8.34937C20.6975 8.1462 20.5833 7.87065 20.5833 7.58333V3.25ZM9.75 3.25C9.75 2.96268 9.86414 2.68713 10.0673 2.48397C10.2705 2.2808 10.546 2.16667 10.8333 2.16667C11.1207 2.16667 11.3962 2.2808 11.5994 2.48397C11.8025 2.68713 11.9167 2.96268 11.9167 3.25V7.58333C11.9167 7.87065 11.8025 8.1462 11.5994 8.34937C11.3962 8.55253 11.1207 8.66667 10.8333 8.66667C10.546 8.66667 10.2705 8.55253 10.0673 8.34937C9.86414 8.1462 9.75 7.87065 9.75 7.58333V3.25ZM5.41667 6.5H7.58333V7.58333C7.58333 8.44529 7.92574 9.27194 8.53524 9.88143C9.14473 10.4909 9.97138 10.8333 10.8333 10.8333C11.6953 10.8333 12.5219 10.4909 13.1314 9.88143C13.7409 9.27194 14.0833 8.44529 14.0833 7.58333V6.5H18.4167V7.58333C18.4167 8.44529 18.7591 9.27194 19.3686 9.88143C19.9781 10.4909 20.8047 10.8333 21.6667 10.8333C22.5286 10.8333 23.3553 10.4909 23.9648 9.88143C24.5743 9.27194 24.9167 8.44529 24.9167 7.58333V6.5H29.25V7.58333C29.25 8.44529 29.5924 9.27194 30.2019 9.88143C30.8114 10.4909 31.638 10.8333 32.5 10.8333C33.362 10.8333 34.1886 10.4909 34.7981 9.88143C35.4076 9.27194 35.75 8.44529 35.75 7.58333V6.5H40.0833V7.58333C40.0833 8.44529 40.4257 9.27194 41.0352 9.88143C41.6447 10.4909 42.4714 10.8333 43.3333 10.8333C44.1953 10.8333 45.0219 10.4909 45.6314 9.88143C46.2409 9.27194 46.5833 8.44529 46.5833 7.58333V6.5H48.75C49.612 6.5 50.4386 6.84241 51.0481 7.4519C51.6576 8.0614 52 8.88805 52 9.75V13H2.16667V9.75C2.16667 8.88805 2.50908 8.0614 3.11857 7.4519C3.72806 6.84241 4.55471 6.5 5.41667 6.5ZM5.41667 53.0833C4.55471 53.0833 3.72806 52.7409 3.11857 52.1314C2.50908 51.5219 2.16667 50.6953 2.16667 49.8333V15.1667H52V34.84C49.7572 34.4938 47.4649 34.6668 45.2994 35.3455C43.134 36.0243 41.1531 37.1907 39.5092 38.7552C39.0794 37.8907 38.4263 37.1568 37.6176 36.6294C36.8089 36.1021 35.874 35.8005 34.9096 35.7558C33.9452 35.7111 32.9864 35.925 32.1324 36.3753C31.2784 36.8257 30.5603 37.496 30.0524 38.3171C29.5445 39.1381 29.2653 40.08 29.2436 41.0452C29.222 42.0104 29.4587 42.9638 29.9292 43.8068C30.3998 44.6498 31.0871 45.3517 31.92 45.8399C32.753 46.328 33.7012 46.5847 34.6667 46.5833C34.7891 46.5833 34.9104 46.5703 35.0318 46.5628C34.5468 48.709 34.545 50.9363 35.0263 53.0833H5.41667ZM35.7641 44.2C35.4141 44.337 35.0425 44.4104 34.6667 44.4167C34.0486 44.4195 33.4426 44.246 32.9196 43.9166C32.3966 43.5872 31.9785 43.1155 31.7141 42.5568C31.4498 41.9981 31.3502 41.3756 31.4271 40.7624C31.504 40.1491 31.7541 39.5705 32.1482 39.0944C32.5423 38.6183 33.064 38.2644 33.6521 38.0743C34.2402 37.8842 34.8703 37.8657 35.4686 38.021C36.0668 38.1763 36.6083 38.499 37.0297 38.9512C37.451 39.4034 37.7346 39.9664 37.8473 40.5741C36.9888 41.6807 36.2877 42.901 35.7641 44.2ZM49.8333 62.8333C47.2622 62.8333 44.7488 62.0709 42.6109 60.6424C40.4731 59.214 38.8068 57.1837 37.8229 54.8082C36.839 52.4328 36.5815 49.8189 37.0831 47.2972C37.5847 44.7754 38.8229 42.459 40.6409 40.6409C42.459 38.8229 44.7754 37.5847 47.2972 37.0831C49.8189 36.5815 52.4328 36.839 54.8082 37.8229C57.1837 38.8068 59.214 40.4731 60.6424 42.6109C62.0709 44.7488 62.8333 47.2622 62.8333 49.8333C62.8296 53.28 61.4588 56.5844 59.0216 59.0216C56.5844 61.4588 53.28 62.8296 49.8333 62.8333Z" fill="#173F35"/>
<path d="M45.6683 58.4507V44.4507H51.1683C52.9683 44.4507 54.3883 44.8507 55.4283 45.6507C56.4683 46.4373 56.9883 47.5907 56.9883 49.1107C56.9883 50.6307 56.4683 51.7907 55.4283 52.5907C54.3883 53.3907 52.9683 53.7907 51.1683 53.7907H46.7883L47.6883 52.8507V58.4507H45.6683ZM47.6883 53.0507L46.7883 52.1307H51.1683C52.395 52.1307 53.335 51.8707 53.9883 51.3507C54.6417 50.8307 54.9683 50.0907 54.9683 49.1307C54.9683 48.184 54.6417 47.4573 53.9883 46.9507C53.335 46.444 52.395 46.1907 51.1683 46.1907H46.7883L47.6883 45.1907V53.0507ZM43.6283 56.1107V54.9707H52.1283V56.1107H43.6283Z" fill="#173F35"/>
<path d="M38.6827 21.9841C38.4796 21.781 38.2041 21.6669 37.9168 21.6669C37.6296 21.6669 37.3541 21.781 37.1509 21.9841L15.4842 43.6508C15.3808 43.7507 15.2982 43.8703 15.2415 44.0024C15.1847 44.1346 15.1548 44.2768 15.1536 44.4206C15.1523 44.5645 15.1797 44.7071 15.2342 44.8402C15.2887 44.9734 15.3691 45.0943 15.4708 45.1961C15.5725 45.2978 15.6935 45.3782 15.8266 45.4327C15.9598 45.4872 16.1024 45.5146 16.2463 45.5133C16.3901 45.5121 16.5323 45.4822 16.6644 45.4254C16.7966 45.3686 16.9161 45.2861 17.0161 45.1826L38.6827 23.516C38.8858 23.3128 38.9999 23.0373 38.9999 22.75C38.9999 22.4628 38.8858 22.1873 38.6827 21.9841ZM19.5002 31.4167C20.5715 31.4167 21.6187 31.099 22.5095 30.5038C23.4003 29.9086 24.0945 29.0627 24.5045 28.0729C24.9145 27.0831 25.0218 25.994 24.8128 24.9433C24.6037 23.8926 24.0879 22.9274 23.3303 22.1699C22.5728 21.4123 21.6076 20.8965 20.5569 20.6875C19.5062 20.4785 18.4171 20.5857 17.4273 20.9957C16.4375 21.4057 15.5916 22.0999 14.9964 22.9907C14.4012 23.8815 14.0835 24.9287 14.0835 26C14.0852 27.4361 14.6565 28.8129 15.6719 29.8283C16.6874 30.8438 18.0641 31.415 19.5002 31.4167ZM19.5002 22.75C20.143 22.75 20.7713 22.9407 21.3058 23.2978C21.8402 23.6549 22.2568 24.1625 22.5028 24.7563C22.7488 25.3502 22.8131 26.0037 22.6877 26.6341C22.5623 27.2645 22.2528 27.8436 21.7983 28.2981C21.3437 28.7527 20.7646 29.0622 20.1342 29.1876C19.5038 29.313 18.8503 29.2486 18.2564 29.0027C17.6626 28.7567 17.155 28.3401 16.7979 27.8056C16.4408 27.2712 16.2502 26.6428 16.2502 26C16.2502 25.1381 16.5926 24.3114 17.2021 23.7019C17.8116 23.0925 18.6382 22.75 19.5002 22.75Z" fill="#173F35"/>
</g>
<defs>
<clipPath id="clip0_196_338">
<rect width="65" height="65" fill="white"/>
</clipPath>
</defs>
</svg>
