<svg width="69" height="69" viewBox="0 0 69 69" fill="none" xmlns="http://www.w3.org/2000/svg">
<g id="Frame" clip-path="url(#clip0_197_347)">
<g id="Group">
<path id="Vector" d="M56.153 41.6714C56.004 41.6714 55.8564 41.6421 55.7188 41.5851C55.5811 41.5281 55.456 41.4445 55.3507 41.3392C55.2453 41.2338 55.1617 41.1088 55.1047 40.9711C55.0477 40.8335 55.0184 40.686 55.0184 40.537V40.1053C55.0184 38.7795 53.1266 37.4789 51.199 37.4789H46.5613C46.4124 37.479 46.2649 37.4497 46.1273 37.3928C45.9897 37.3358 45.8646 37.2523 45.7593 37.147C45.654 37.0417 45.5705 36.9166 45.5136 36.779C45.4567 36.6414 45.4274 36.4939 45.4275 36.345C45.4274 36.196 45.4567 36.0485 45.5136 35.9109C45.5706 35.7733 45.6541 35.6482 45.7594 35.5429C45.8646 35.4375 45.9897 35.3539 46.1273 35.2969C46.2649 35.2399 46.4123 35.2105 46.5613 35.2105H51.199C54.0786 35.2105 57.2866 37.2212 57.2866 40.1053V40.537C57.2866 40.6859 57.2574 40.8334 57.2005 40.971C57.1435 41.1086 57.0601 41.2337 56.9548 41.339C56.8495 41.4444 56.7245 41.528 56.5869 41.585C56.4494 41.642 56.3019 41.6714 56.153 41.6714ZM51.6171 27.8379C51.5858 27.8379 51.5548 27.8372 51.5235 27.8346C50.8986 27.7827 50.4339 27.2356 50.4858 26.6114L51.053 19.6885C51.0485 15.7808 48.0267 12.5261 44.3125 12.5261H38.504C34.789 12.5261 31.7673 15.7808 31.7673 19.7812L32.33 26.6114C32.3819 27.2356 31.9172 27.7827 31.2923 27.8347C30.6718 27.8859 30.1215 27.4219 30.0695 26.797L29.5029 19.8741C29.4991 14.5303 33.5386 10.2577 38.504 10.2577H44.3119C49.2779 10.2577 53.3174 14.5303 53.3174 19.7812L52.7463 26.797C52.723 27.0805 52.5939 27.3449 52.3847 27.5377C52.1756 27.7306 51.9015 27.8377 51.6171 27.8379Z" fill="#173F35"/>
<path id="Vector_2" d="M41.4079 38.6134C40.0633 38.6134 38.7081 38.3972 37.4886 37.9877C37.3474 37.9402 37.2169 37.8654 37.1046 37.7675C36.9923 37.6696 36.9004 37.5506 36.8341 37.4171C36.7678 37.2837 36.7284 37.1385 36.7183 36.9899C36.7081 36.8413 36.7273 36.6921 36.7748 36.5509C36.9747 35.9577 37.6172 35.6396 38.2103 35.8363C39.2 36.1686 40.3054 36.345 41.4074 36.345C43.978 36.345 46.3567 35.4144 47.6144 33.916C49.329 31.8716 50.4811 28.9536 50.4811 26.6561V22.0852C50.4811 21.4894 50.3589 21.0916 50.1189 20.9061C49.2642 20.2402 46.5481 20.93 44.152 21.5381C41.9615 22.0943 39.6978 22.67 37.6464 22.67C35.0939 22.67 33.3754 21.7517 32.3466 21.1202C32.3389 21.3739 32.3343 21.6901 32.3343 22.0852V26.6561C32.3343 28.3111 32.9509 30.3705 33.9841 32.1642C34.0585 32.2932 34.1067 32.4356 34.126 32.5833C34.1452 32.7309 34.1353 32.8809 34.0966 33.0247C34.0579 33.1685 33.9912 33.3033 33.9004 33.4213C33.8096 33.5393 33.6965 33.6383 33.5674 33.7126C33.4384 33.7872 33.2959 33.8356 33.1482 33.855C33.0005 33.8744 32.8503 33.8645 32.7064 33.8258C32.5625 33.7871 32.4277 33.7204 32.3096 33.6295C32.1915 33.5386 32.0925 33.4253 32.0183 33.2961C30.7774 31.1407 30.0654 28.7205 30.0654 26.6561V22.0852C30.0654 20.1564 30.109 19.0414 31.0065 18.5463C31.8066 18.0977 32.5641 18.5794 33.2311 18.9979C34.1179 19.5575 35.458 20.4018 37.6464 20.4018C39.4137 20.4018 41.5385 19.8612 43.5932 19.3393C46.9141 18.4963 49.7794 17.7668 51.5117 19.1147C52.3332 19.7534 52.7494 20.7529 52.7494 22.0854V26.6561C52.7494 29.4911 51.4163 32.9118 49.3518 35.3736C47.6501 37.4022 44.6796 38.6134 41.4079 38.6134ZM51.7582 52.6622C51.4791 52.6619 51.21 52.5587 51.0022 52.3723C50.7945 52.186 50.6628 51.9295 50.6324 51.6521C50.6019 51.3747 50.6749 51.0958 50.8372 50.8688C50.9996 50.6418 51.2399 50.4827 51.5123 50.4219L64.9725 47.408C65.4722 47.3197 65.863 47.0711 66.1239 46.6993C66.2527 46.5167 66.3441 46.3104 66.3927 46.0922C66.4412 45.8741 66.446 45.6485 66.4068 45.4284C66.3547 45.1353 66.227 44.8607 66.0364 44.632C65.8457 44.4032 65.5987 44.2282 65.3197 44.124C65.1799 44.0724 65.0517 43.9937 64.9424 43.8925C64.8331 43.7913 64.7448 43.6695 64.6826 43.5341C64.6204 43.3986 64.5855 43.2523 64.5799 43.1034C64.5744 42.9545 64.5982 42.806 64.6502 42.6663C64.8681 42.079 65.5229 41.7766 66.1071 41.9972C67.4271 42.4859 68.3987 43.6509 68.6414 45.0365C68.825 46.0814 68.5899 47.1341 67.9807 48.0018C67.3719 48.8701 66.4608 49.4485 65.4158 49.6321L52.0074 52.6349C51.9244 52.6532 51.8406 52.6622 51.7582 52.6622Z" fill="#173F35"/>
<path id="Vector_3" d="M36.4131 59.029H27.7969C27.7147 59.029 27.6321 59.0205 27.551 59.0024L17.3436 56.734C16.7322 56.5978 16.3461 55.9915 16.4823 55.381C16.6179 54.7696 17.2228 54.3879 17.8347 54.519L27.9217 56.7606H36.4131C40.8392 56.7606 45.1811 55.2374 48.6383 52.4721C48.6689 52.4474 48.7007 52.4254 48.7331 52.4047L65.5207 41.6098C65.5749 41.5745 65.6321 41.5441 65.6915 41.5189C65.8975 41.4322 66.0842 41.3055 66.241 41.1462C66.3977 40.9869 66.5213 40.7982 66.6047 40.5908C66.7753 40.169 66.7708 39.7056 66.5935 39.2882C66.2269 38.4238 65.2262 38.0196 64.3631 38.3861L47.5111 45.3337C47.3742 45.3902 47.2268 45.4188 47.0788 45.4188H25.5287C25.3279 45.419 25.1307 45.3658 24.9572 45.2647C24.7837 45.1637 24.6401 45.0183 24.5412 44.8436C24.4423 44.6688 24.3917 44.4709 24.3944 44.2701C24.397 44.0694 24.453 43.8729 24.5566 43.7009L27.9592 38.0299C28.06 37.862 28.2025 37.7232 28.3729 37.6267C28.5433 37.5303 28.7357 37.4796 28.9315 37.4796H33.4686C35.5786 37.4796 37.3568 36.0323 37.8617 34.077H25.8999L10.4278 45.4239C9.92161 45.7944 9.2135 45.683 8.84234 45.1799C8.66464 44.9371 8.59052 44.6337 8.63625 44.3363C8.68197 44.039 8.84381 43.7719 9.08624 43.5937L24.8583 32.0279C25.0527 31.8852 25.2876 31.8083 25.5287 31.8086H39.1389C39.4398 31.8086 39.7283 31.9281 39.9411 32.1409C40.1538 32.3536 40.2733 32.6422 40.2733 32.943C40.2733 36.6956 37.2204 39.7483 33.4681 39.7483H29.574L27.5321 43.1511H46.8543L63.4881 36.2938C65.4928 35.4417 67.8273 36.3879 68.6821 38.4024C69.0962 39.3785 69.1058 40.4571 68.7081 41.4411C68.3238 42.3925 67.6034 43.1433 66.6741 43.5665L50.0097 54.2816C46.1585 57.3428 41.3332 59.029 36.4131 59.029Z" fill="#173F35"/>
<path id="Vector_4" d="M12.2718 65.4477C12.211 65.4477 12.1503 65.4429 12.0902 65.4334C11.7933 65.3848 11.5278 65.2207 11.3515 64.977L0.214714 49.5277C0.127297 49.407 0.0646315 49.2702 0.030328 49.1252C-0.00397556 48.9802 -0.00923847 48.8298 0.0148425 48.6827C0.0631697 48.3859 0.227238 48.1203 0.471074 47.9442L7.83076 42.6386C8.34016 42.2764 9.04827 42.3882 9.41428 42.8956L20.5511 58.3437C20.6383 58.4645 20.7008 58.6013 20.7351 58.7462C20.7694 58.8912 20.7748 59.0415 20.751 59.1886C20.7272 59.3357 20.6747 59.4766 20.5964 59.6034C20.5181 59.7301 20.4156 59.8402 20.2947 59.9273L12.935 65.2342C12.7417 65.373 12.5098 65.4477 12.2718 65.4478V65.4477ZM2.71801 49.1213L12.5288 62.7295L18.0486 58.7499L8.23765 45.1417L2.71801 49.1213Z" fill="#173F35"/>
<path id="Vector_5" d="M15.3207 57.8952C15.3207 59.1478 14.3051 60.1634 13.0524 60.1634C11.7997 60.1634 10.7842 59.1478 10.7842 57.895C10.7842 56.642 11.7998 55.6262 13.0525 55.6262C14.3053 55.6262 15.3207 56.6421 15.3207 57.8952ZM41.4079 6.85523C41.2589 6.85536 41.1114 6.82612 40.9737 6.76919C40.836 6.71225 40.711 6.62874 40.6056 6.52343C40.5002 6.41811 40.4167 6.29306 40.3597 6.15542C40.3027 6.01779 40.2734 5.87026 40.2734 5.72129V1.18423C40.2734 1.03526 40.3027 0.887734 40.3597 0.750097C40.4167 0.61246 40.5002 0.487408 40.6056 0.382092C40.711 0.276777 40.836 0.193265 40.9737 0.136332C41.1114 0.0793994 41.2589 0.0501624 41.4079 0.0502934C41.5568 0.0501842 41.7043 0.0794397 41.8419 0.136387C41.9796 0.193333 42.1046 0.276854 42.2099 0.382171C42.3152 0.487489 42.3988 0.612536 42.4557 0.75016C42.5127 0.887785 42.5419 1.03529 42.5418 1.18423V5.72129C42.5419 5.87022 42.5126 6.0177 42.4557 6.15531C42.3987 6.29291 42.3152 6.41794 42.2099 6.52324C42.1046 6.62854 41.9795 6.71205 41.8419 6.76898C41.7043 6.82592 41.5568 6.85534 41.4079 6.85523ZM45.9444 6.85523C45.7955 6.85551 45.648 6.82629 45.5105 6.76925C45.3729 6.71222 45.248 6.6285 45.143 6.52294C45.0375 6.4177 44.9539 6.2927 44.8968 6.1551C44.8398 6.0175 44.8104 5.87 44.8104 5.72104C44.8104 5.57208 44.8398 5.42458 44.8968 5.28699C44.9539 5.14939 45.0375 5.02439 45.143 4.91915L49.112 0.949133C49.3259 0.74208 49.6126 0.627414 49.9103 0.629871C50.208 0.632327 50.4928 0.75171 50.7033 0.962266C50.9138 1.17282 51.033 1.45767 51.0354 1.75537C51.0377 2.05307 50.9229 2.33976 50.7158 2.55359L46.7466 6.52277C46.6414 6.62837 46.5164 6.7121 46.3787 6.76913C46.2409 6.82616 46.0933 6.85537 45.9443 6.85506L45.9444 6.85523ZM36.8708 6.85523C36.7219 6.85551 36.5744 6.82629 36.4368 6.76925C36.2993 6.71222 36.1744 6.6285 36.0693 6.52294L32.6667 3.12014C32.5613 3.0149 32.4777 2.88991 32.4206 2.75233C32.3636 2.61475 32.3342 2.46727 32.3342 2.31833C32.3342 2.16939 32.3636 2.02191 32.4206 1.88432C32.4777 1.74674 32.5613 1.62176 32.6667 1.51652C32.8794 1.30398 33.1678 1.1846 33.4685 1.1846C33.7692 1.1846 34.0576 1.30398 34.2703 1.51652L37.673 4.91915C37.8314 5.07784 37.9392 5.27991 37.9828 5.49985C38.0265 5.71979 38.004 5.94773 37.9181 6.15488C37.8323 6.36203 37.687 6.53909 37.5006 6.66371C37.3142 6.78834 37.095 6.85509 36.8708 6.85523Z" fill="#173F35"/>
</g>
</g>
<defs>
<clipPath id="clip0_197_347">
<rect width="69" height="69" fill="white"/>
</clipPath>
</defs>
</svg>
