<svg width="200" height="149" viewBox="0 0 200 149" fill="none" xmlns="http://www.w3.org/2000/svg">
<path d="M191.015 86.9829L191.939 88.5842L193.758 88.9176C194.404 89.0361 194.974 89.369 195.378 89.8415C195.754 90.2817 195.966 90.8186 195.996 91.37C195.406 99.9276 191.539 107.967 185.146 113.864C178.706 119.804 170.189 123.122 161.326 123.122C152.463 123.122 143.946 119.804 137.507 113.864C131.113 107.966 127.246 99.9262 126.656 91.368C126.686 90.8152 126.898 90.2769 127.275 89.8358C127.679 89.3627 128.25 89.0296 128.898 88.9116L130.72 88.5795L131.645 86.975L153.798 48.571L156.12 44.5446L151.792 42.8483C145.185 40.2583 139.176 36.3997 134.117 31.503L134.03 31.4185L133.938 31.3395C133.774 31.1995 133.611 31.0591 133.447 30.9183C130.725 28.5843 127.898 26.1596 125.035 24.3864C121.937 22.4675 118.375 21.0346 114.31 21.3668L114.246 21.372L114.182 21.3793C110.826 21.7621 107.637 23.0504 104.97 25.1097L103.414 26.3106V28.2761V100.848V103.428L105.764 104.492C107.907 105.463 109.713 107.01 110.975 108.942C112.236 110.871 112.906 113.106 112.912 115.385V134.68V138.68H116.912H127.591C128.372 138.68 129.107 138.986 129.638 139.507C130.166 140.025 130.449 140.713 130.449 141.414C130.449 142.115 130.166 142.803 129.638 143.322C129.107 143.843 128.372 144.148 127.591 144.148H73.0677C72.2863 144.148 71.5513 143.843 71.0206 143.322C70.4925 142.803 70.2094 142.115 70.2094 141.414C70.2094 140.713 70.4925 140.025 71.0206 139.507C71.5513 138.986 72.2863 138.68 73.0677 138.68H84.1986H88.1986V134.68V115.385C88.2055 113.106 88.8748 110.871 90.1358 108.942C91.3982 107.01 93.2037 105.463 95.3473 104.492L97.6973 103.428V100.848V29.1448V27.3535L96.361 26.1607C93.4361 23.5499 89.7781 21.8859 85.8791 21.38L85.7768 21.3668L85.6739 21.3588C81.7083 21.0511 78.1556 22.4961 75.0676 24.3865C72.0089 26.259 68.9764 28.8452 66.0677 31.3281L65.9724 31.4094L65.8824 31.4966C60.8217 36.3961 54.8106 40.2569 48.2005 42.8484L43.8718 44.5454L46.1963 48.5721L68.3689 86.9829L69.2921 88.5821L71.108 88.9169C71.7539 89.036 72.3233 89.3691 72.7262 89.8415C73.1126 90.2945 73.3253 90.8499 73.3459 91.418C73.0329 100.065 69.2578 108.26 62.8135 114.215C56.3412 120.196 47.7045 123.427 38.7914 123.18L38.6798 123.177L38.5682 123.18C29.653 123.43 21.0131 120.201 14.5381 114.22C8.09054 108.264 4.31375 100.066 4.00128 91.4159C4.02107 90.8466 4.23395 90.2898 4.62124 89.8358C5.02483 89.3628 5.5952 89.0295 6.24216 88.9109L8.06081 88.5775L8.98516 86.9761L31.5693 47.8516L33.9381 43.7479L29.4952 42.1012C26.9342 41.152 24.4869 39.9333 22.196 38.467C21.5627 38.0569 21.1407 37.4315 20.9953 36.7426C20.8499 36.0537 20.9867 35.331 21.3895 34.7288C21.7942 34.1238 22.4415 33.6819 23.2038 33.5268C23.9453 33.3759 24.712 33.5141 25.3403 33.8994C29.7341 36.9851 34.9866 38.6525 40.3746 38.6801L40.7069 38.6818L41.0351 38.6286C49.2928 37.2901 56.8491 33.2244 62.4524 27.0906C69.7631 20.8413 76.7491 15.2506 86.0663 15.9127C88.176 16.1088 90.2433 16.6102 92.201 17.3998L97.6973 19.6168V13.6902V6.73401C97.6973 6.03276 97.9803 5.34511 98.5085 4.82651C99.0391 4.30547 99.7741 4 100.556 4C101.337 4 102.072 4.30548 102.603 4.82651C103.131 5.34509 103.414 6.03273 103.414 6.73401V13.2727V18.9288L108.747 17.0441C110.421 16.4524 112.165 16.0697 113.939 15.9055C123.188 15.2201 130.228 20.8339 137.547 27.0902C143.149 33.2265 150.706 37.2947 158.964 38.6352L159.328 38.6942L159.696 38.6858C165.036 38.5647 170.229 36.9098 174.633 33.9182C174.94 33.7255 175.285 33.5897 175.65 33.521C176.028 33.4498 176.417 33.4525 176.793 33.5287C177.17 33.6048 177.524 33.7524 177.835 33.9599C178.147 34.1673 178.409 34.4297 178.61 34.7291C178.81 35.0284 178.946 35.3596 179.013 35.7035C179.081 36.0473 179.078 36.4003 179.006 36.7433C178.934 37.0864 178.793 37.416 178.588 37.7128C178.384 38.0082 178.12 38.2661 177.808 38.469C175.516 39.9377 173.067 41.158 170.505 42.108L166.062 43.7548L168.431 47.8583L191.015 86.9829ZM55.9084 88.7138H62.8357L59.3727 82.7142L42.1379 52.8556L38.6729 46.8526L35.209 52.8562L17.9811 82.7148L14.5197 88.7138H21.4457H55.9084ZM22.0932 112.986C27.0055 116.192 32.7921 117.838 38.6736 117.712C44.5552 117.838 50.3417 116.192 55.254 112.986C60.1949 109.761 64.0153 105.111 66.182 99.6592L68.3589 94.1818H62.4648H14.8824H8.98828L11.1652 99.6592C13.3319 105.111 17.1523 109.761 22.0932 112.986ZM93.9151 134.68V138.68H97.9151H103.196H107.196V134.68V115.38C107.196 113.608 106.478 111.924 105.225 110.693C103.974 109.465 102.293 108.788 100.556 108.788C98.8177 108.788 97.1367 109.465 95.886 110.693C94.6328 111.924 93.9151 113.608 93.9151 115.38V134.68ZM178.554 88.7138H185.479L182.019 82.7154L164.798 52.8568L161.334 46.8502L157.869 52.8562L140.641 82.7148L137.179 88.7138H144.105H178.554ZM161.322 117.712C167.204 117.839 172.991 116.194 177.903 112.988C182.846 109.763 186.668 105.112 188.835 99.6591L191.012 94.1818H185.118H137.535H131.641L133.818 99.6592C135.985 105.111 139.805 109.761 144.746 112.986C149.657 116.192 155.442 117.837 161.322 117.712Z" stroke="#303030" stroke-width="8"/>
</svg>
