<svg xmlns="http://www.w3.org/2000/svg" version="1.1" xmlns:xlink="http://www.w3.org/1999/xlink" xmlns:svgjs="http://svgjs.com/svgjs" width="512" height="512" x="0" y="0" viewBox="0 0 24 24" style="enable-background:new 0 0 512 512" xml:space="preserve" class=""><g><path d="M12 3c.65 0 1.28.1 1.87.3l-1.71 1.71C12.11 5 12.05 5 12 5 9.79 5 8 6.79 8 9v2.25c0 .55-.45 1-1 1s-1-.45-1-1V9c0-3.31 2.69-6 6-6zM18 9v2.25c0 .55-.45 1-1 1s-1-.45-1-1V9c0-.63-.15-1.23-.41-1.76l1.46-1.46c.61.93.95 2.03.95 3.22zM17.75 3a.75.75 0 0 1-.53-1.281l.5-.5a.75.75 0 1 1 1.061 1.061l-.5.5a.748.748 0 0 1-.531.22zM19.25 5.5h-.5a.75.75 0 0 1 0-1.5h.5a.75.75 0 0 1 0 1.5zM15.25 2a.75.75 0 0 1-.75-.75v-.5a.75.75 0 0 1 1.5 0v.5a.75.75 0 0 1-.75.75z" fill="#ffffff" data-original="#000000" opacity="1" class=""></path><path d="M17.75 11H6.25A2.253 2.253 0 0 0 4 13.25v8.5C4 22.991 5.01 24 6.25 24h11.5c1.24 0 2.25-1.009 2.25-2.25v-8.5c0-1.241-1.01-2.25-2.25-2.25zM13 17.722V20a1 1 0 1 1-2 0v-2.278c-.595-.347-1-.985-1-1.722 0-1.103.897-2 2-2s2 .897 2 2c0 .737-.405 1.375-1 1.722z" fill="#ffffff" data-original="#000000" opacity="1" class=""></path></g></svg>