<svg width="18" height="20" viewBox="0 0 18 20" fill="none" xmlns="http://www.w3.org/2000/svg">
<g id="Group">
<path id="Vector" fill-rule="evenodd" clip-rule="evenodd" d="M17.6705 17.2125C17.551 17.3382 17.4068 17.4991 17.254 17.6692C16.8727 18.0964 16.3962 18.6275 16.0976 18.8429C14.5266 19.9762 12.4248 19.4339 10.938 18.78C8.97679 17.9174 6.84153 16.3274 4.9243 14.3033C3.00528 12.279 1.49919 10.0243 0.682016 7.95519C0.063294 6.38545 -0.451475 4.16629 0.622253 2.50749C0.82615 2.19205 1.33044 1.68992 1.73465 1.28658C1.89636 1.12574 2.04753 0.973779 2.16705 0.848014C2.37926 0.625125 2.66643 0.5 2.96578 0.5C3.26514 0.5 3.55231 0.625125 3.76452 0.848014L6.65521 3.89858C6.86624 4.12257 6.9847 4.42564 6.9847 4.74154C6.9847 5.05745 6.86624 5.36052 6.65521 5.58451L5.86775 6.4141C5.60476 6.68968 5.4331 7.04753 5.37832 7.4344C5.32353 7.82127 5.38855 8.21647 5.56369 8.56119C6.6468 10.7191 8.31892 12.4839 10.3634 13.6269C10.6898 13.8117 11.0642 13.8803 11.4305 13.8224C11.7969 13.7644 12.1358 13.5831 12.3966 13.3054L13.1822 12.4758C13.3944 12.2529 13.6815 12.1278 13.9809 12.1278C14.2802 12.1278 14.5674 12.2529 14.7796 12.4758L17.6705 15.5269C17.8815 15.7508 18 16.0538 18 16.3697C18 16.6855 17.8815 16.9885 17.6705 17.2125Z" fill="white"/>
</g>
</svg>
