<svg width="54" height="54" viewBox="0 0 54 54" fill="none" xmlns="http://www.w3.org/2000/svg">
<path fill-rule="evenodd" clip-rule="evenodd" d="M41.7889 19.2189C42.0034 18.5169 41.7889 18 40.7621 18H37.3715C36.5087 18 36.1109 18.4461 35.8952 18.9386C35.8952 18.9386 34.1709 23.0477 31.7284 25.7169C30.9379 26.4909 30.5788 26.7364 30.1474 26.7364C29.9317 26.7364 29.6075 26.4909 29.6075 25.7876V19.2189C29.6075 18.3754 29.3698 18 28.6517 18H23.3198C22.7812 18 22.457 18.3909 22.457 18.7624C22.457 19.5609 23.6789 19.746 23.8042 21.9934V26.8766C23.8042 27.9476 23.6065 28.1417 23.1751 28.1417C22.0256 28.1417 19.2292 24.0133 17.5694 19.2896C17.2478 18.3703 16.9223 18 16.0556 18H12.6625C11.6937 18 11.5 18.4461 11.5 18.9386C11.5 19.8154 12.6496 24.1714 16.8538 29.9327C19.6567 33.867 23.6027 36 27.1973 36C29.353 36 29.6191 35.5269 29.6191 34.7104V31.7366C29.6191 30.789 29.8232 30.6 30.5065 30.6C31.0102 30.6 31.8717 30.8469 33.8841 32.7433C36.1832 34.992 36.5617 36 37.8559 36H41.2465C42.2152 36 42.7008 35.5269 42.4219 34.5909C42.1144 33.66 41.0165 32.3087 39.5609 30.7054C38.7704 29.7926 37.5847 28.809 37.2243 28.3166C36.7218 27.6853 36.8652 27.4037 37.2243 26.8419C37.2243 26.8419 41.3575 21.1513 41.7877 19.2189H41.7889Z" fill="#173F35"/>
</svg>
