<svg width="54" height="54" viewBox="0 0 54 54" fill="none" xmlns="http://www.w3.org/2000/svg">
<path d="M27.0031 14.5H26.9969C20.1047 14.5 14.5 20.1062 14.5 27C14.5 29.7344 15.3813 32.2687 16.8797 34.3266L15.3219 38.9703L20.1266 37.4344C22.1031 38.7438 24.4609 39.5 27.0031 39.5C33.8953 39.5 39.5 33.8922 39.5 27C39.5 20.1078 33.8953 14.5 27.0031 14.5ZM34.2766 32.1516C33.975 33.0031 32.7781 33.7094 31.8234 33.9156C31.1703 34.0547 30.3172 34.1656 27.4453 32.975C23.7719 31.4531 21.4062 27.7203 21.2219 27.4781C21.0453 27.2359 19.7375 25.5016 19.7375 23.7078C19.7375 21.9141 20.6484 21.0406 21.0156 20.6656C21.3172 20.3578 21.8156 20.2172 22.2937 20.2172C22.4484 20.2172 22.5875 20.225 22.7125 20.2312C23.0797 20.2469 23.2641 20.2688 23.5063 20.8484C23.8078 21.575 24.5422 23.3688 24.6297 23.5531C24.7188 23.7375 24.8078 23.9875 24.6828 24.2297C24.5656 24.4797 24.4625 24.5906 24.2781 24.8031C24.0938 25.0156 23.9187 25.1781 23.7344 25.4062C23.5656 25.6047 23.375 25.8172 23.5875 26.1844C23.8 26.5437 24.5344 27.7422 25.6156 28.7047C27.0109 29.9469 28.1422 30.3438 28.5469 30.5125C28.8484 30.6375 29.2078 30.6078 29.4281 30.3734C29.7078 30.0719 30.0531 29.5719 30.4047 29.0797C30.6547 28.7266 30.9703 28.6828 31.3016 28.8078C31.6391 28.925 33.425 29.8078 33.7922 29.9906C34.1594 30.175 34.4016 30.2625 34.4906 30.4172C34.5781 30.5719 34.5781 31.2984 34.2766 32.1516Z" fill="#173F35"/>
</svg>
