<svg width="168" height="58" viewBox="0 0 168 58" fill="none" xmlns="http://www.w3.org/2000/svg">
<g id="logo 1" clip-path="url(#clip0_188_3)">
<path id="Vector" d="M159.558 0H8.44221C3.77971 0 0 3.79087 0 8.46715V49.5328C0 54.2091 3.77971 58 8.44221 58H159.558C164.22 58 168 54.2091 168 49.5328V8.46715C168 3.79087 164.22 0 159.558 0Z" fill="#173F35"/>
<path id="Vector_2" d="M36.7236 11.0073H148.161" stroke="white" stroke-linecap="round"/>
<path id="Vector_3" d="M45.5879 47.4161H148.161" stroke="white" stroke-linecap="round"/>
<path id="Vector_4" d="M56.0387 30.0947V28.1109H59.5802C60.703 28.1109 61.7022 28.3258 62.5772 28.7557C63.4687 29.1689 64.1707 29.7641 64.6823 30.541C65.2107 31.318 65.475 32.2437 65.475 33.3182C65.475 34.3762 65.2107 35.302 64.6823 36.0955C64.1707 36.8724 63.4687 37.4758 62.5772 37.9056C61.7022 38.3189 60.703 38.5255 59.5802 38.5255H56.0387V36.5418H59.5802C60.3235 36.5418 60.9757 36.4261 61.5371 36.1947C62.115 35.9467 62.5607 35.583 62.8743 35.1036C63.2049 34.6242 63.3699 34.0291 63.3699 33.3182C63.3699 32.6074 63.2049 32.0123 62.8743 31.5329C62.5607 31.0535 62.115 30.6981 61.5371 30.4666C60.9757 30.2187 60.3235 30.0947 59.5802 30.0947H56.0387ZM54.8745 21.1679H64.1622V23.1516H56.9796V38.5255H54.8745V21.1679Z" fill="white"/>
<path id="Vector_5" d="M74.5112 21.1679H76.6163V38.5255H74.5112V21.1679ZM75.6754 23.1516V21.1679H79.2169C80.3397 21.1679 81.3389 21.3828 82.2139 21.8126C83.1054 22.2258 83.8074 22.821 84.319 23.598C84.8475 24.3749 85.1117 25.3007 85.1117 26.3752C85.1117 27.4331 84.8475 28.3589 84.319 29.1524C83.8074 29.9293 83.1054 30.5328 82.2139 30.9626C81.3389 31.3758 80.3397 31.5825 79.2169 31.5825H75.6754V29.5987H79.2169C80.3397 29.5987 81.2481 29.326 81.9416 28.7804C82.6516 28.2349 83.0066 27.4331 83.0066 26.3752C83.0066 25.3007 82.6516 24.4989 81.9416 23.9699C81.2481 23.4244 80.3397 23.1516 79.2169 23.1516H75.6754Z" fill="white"/>
<path id="Vector_6" d="M95.3126 38.5255V36.5418H104.055V38.5255H95.3126ZM95.3126 23.1516V21.1679H104.055V23.1516H95.3126ZM95.3126 30.0947V28.1109H103.56V30.0947H95.3126ZM94.1484 21.1679H96.2535V38.5255H94.1484V21.1679Z" fill="white"/>
<path id="Vector_7" d="M114.998 30.0947V28.1109H126.886V30.0947H114.998ZM125.474 21.1679H127.58V38.5255H125.474V21.1679ZM113.833 21.1679H115.939V38.5255H113.833V21.1679Z" fill="white"/>
<path id="Vector_8" d="M135.873 23.1516V21.1679H146.894V23.1516H142.436V38.5255H140.331V23.1516H135.873Z" fill="white"/>
<path id="Vector_9" d="M25.2612 26.8468H17.9969C17.795 26.8468 17.6313 27.0109 17.6313 27.2134C17.6313 27.4159 17.795 27.5801 17.9969 27.5801H25.393C25.6135 27.5801 25.7968 27.7502 25.8139 27.9707L27.2922 47.0693C27.3074 47.2649 27.4701 47.4161 27.6657 47.4161C27.8619 47.4161 28.0248 47.2641 28.0393 47.0681L29.4471 27.9722C29.4634 27.7511 29.647 27.5801 29.868 27.5801H37.482C37.6839 27.5801 37.8476 27.4159 37.8476 27.2134C37.8476 27.0109 37.6839 26.8468 37.482 26.8468H29.9591C29.7136 26.8468 29.52 26.6375 29.5382 26.392L29.6038 25.5079C29.6207 25.2806 29.4413 25.0868 29.2141 25.0868C29.0095 25.0868 28.8396 25.2451 28.8244 25.4497L28.7498 26.4548C28.7334 26.6759 28.5498 26.8468 28.3288 26.8468H26.9032C26.6837 26.8468 26.5008 26.678 26.4825 26.4586L26.3982 25.4426C26.3814 25.2415 26.2138 25.0868 26.0126 25.0868C25.7895 25.0868 25.6127 25.2756 25.6265 25.499L25.6825 26.397C25.6977 26.6407 25.5047 26.8468 25.2612 26.8468Z" fill="white"/>
<path id="Vector_10" d="M28.2669 27.5463H26.9905C26.7467 27.5463 26.5536 27.7528 26.5692 27.9968L27.645 44.7743L28.6882 27.996C28.7034 27.7523 28.5104 27.5463 28.2669 27.5463Z" fill="white"/>
<path id="Vector_11" d="M24.5977 20.6503H25.5464C25.7584 20.6503 25.9303 20.4779 25.9303 20.2653C25.9303 20.0527 25.7584 19.8803 25.5464 19.8803H23.9031C23.6699 19.8803 23.481 20.0699 23.481 20.3037V23.4666C23.481 23.7675 23.785 23.9723 24.0627 23.8585L30.686 21.1453C30.9636 21.0315 31.2677 21.2364 31.2677 21.5372V22.6835C31.2677 22.9174 31.0787 23.1069 30.8456 23.1069H30.0796C29.8676 23.1069 29.6957 23.2793 29.6957 23.4919C29.6957 23.7045 29.8676 23.8769 30.0796 23.8769H31.5036C31.7367 23.8769 31.9257 23.6873 31.9257 23.4535V20.5035C31.9257 20.2045 31.6252 19.9998 31.3481 20.1099L24.7531 22.7307C24.476 22.8408 24.1755 22.636 24.1755 22.3371V21.0737C24.1755 20.8399 24.3645 20.6503 24.5977 20.6503Z" fill="white"/>
<path id="Vector_12" d="M30.5704 11.4952L29.5128 18.374C29.474 18.626 29.2201 18.7839 28.9779 18.7065C28.7811 18.6437 28.6605 18.4452 28.6952 18.241L29.7207 12.1983C29.7646 11.9399 29.566 11.7039 29.3045 11.7039H26.1684C25.9087 11.7039 25.7106 11.9368 25.7516 12.194L26.7171 18.2625C26.7478 18.4555 26.6347 18.6424 26.4499 18.7041C26.2161 18.7823 25.9683 18.6307 25.9307 18.3863L24.8712 11.4952C24.8318 11.2387 25.0297 11.0073 25.2884 11.0073H30.1532C30.412 11.0073 30.6098 11.2387 30.5704 11.4952Z" fill="white"/>
<path id="Vector_13" d="M19.9299 28.5627H19.6701C19.4954 28.5627 19.3388 28.6706 19.2761 28.8342L15.82 37.8533C15.721 38.1115 15.9111 38.389 16.187 38.389C16.3489 38.389 16.4943 38.2894 16.5532 38.1382L19.3847 30.8669C19.5251 30.5063 20.0344 30.5083 20.1722 30.8699L22.9321 38.1168C22.9946 38.2807 23.1514 38.389 23.3264 38.389H23.3375C23.6331 38.389 23.8371 38.0922 23.732 37.8151L20.3244 28.8355C20.2621 28.6713 20.1051 28.5627 19.9299 28.5627Z" fill="white"/>
<path id="Vector_14" d="M35.5461 28.5627H35.2863C35.1116 28.5627 34.955 28.6706 34.8923 28.8342L31.4362 37.8533C31.3372 38.1115 31.5273 38.389 31.8032 38.389C31.9651 38.389 32.1105 38.2894 32.1694 38.1382L35.0009 30.8669C35.1413 30.5063 35.6507 30.5083 35.7884 30.8699L38.5484 38.1168C38.6108 38.2807 38.7677 38.389 38.9427 38.389H38.9537C39.2493 38.389 39.4533 38.0922 39.3482 37.8151L35.9406 28.8355C35.8783 28.6713 35.7213 28.5627 35.5461 28.5627Z" fill="white"/>
<path id="Vector_15" d="M34.8505 44.8162L30.818 41.2797C30.2311 40.765 30.5941 39.7956 31.3737 39.7956H39.5108C40.2941 39.7956 40.6551 40.7726 40.0609 41.2846L35.9564 44.8209C35.6378 45.0956 35.1666 45.0935 34.8505 44.8162Z" fill="white"/>
<path id="Vector_16" d="M34.8505 44.8162L30.818 41.2797C30.2311 40.765 30.5941 39.7956 31.3737 39.7956H39.5108C40.2941 39.7956 40.6551 40.7726 40.0609 41.2846L35.9564 44.8209C35.6378 45.0956 35.1666 45.0935 34.8505 44.8162Z" fill="white"/>
<path id="Vector_17" d="M19.2324 44.8162L15.1999 41.2797C14.613 40.765 14.9759 39.7956 15.7556 39.7956H23.8926C24.6759 39.7956 25.0369 40.7726 24.4427 41.2846L20.3382 44.8209C20.0197 45.0956 19.5485 45.0935 19.2324 44.8162Z" fill="white"/>
</g>
<defs>
<clipPath id="clip0_188_3">
<rect width="168" height="58" fill="white"/>
</clipPath>
</defs>
</svg>
