<svg width="107" height="37" viewBox="0 0 107 37" fill="none" xmlns="http://www.w3.org/2000/svg">
<g id="logo 1" clip-path="url(#clip0_188_803)">
<path id="Vector" d="M101.623 0H5.37688C2.40731 0 0 2.41832 0 5.40146V31.5985C0 34.5817 2.40731 37 5.37688 37H101.623C104.593 37 107 34.5817 107 31.5985V5.40146C107 2.41832 104.593 0 101.623 0Z" fill="white"/>
<path id="Vector_2" d="M23.3894 7.02197H94.3643" stroke="#173F35" stroke-width="0.7" stroke-linecap="round"/>
<path id="Vector_3" d="M29.0352 30.248H94.3643" stroke="#173F35" stroke-width="0.7" stroke-linecap="round"/>
<path id="Vector_4" d="M35.6912 19.1981V17.9326H37.9468C38.6619 17.9326 39.2983 18.0697 39.8556 18.3439C40.4234 18.6075 40.8705 18.9872 41.1963 19.4828C41.5329 19.9785 41.7012 20.569 41.7012 21.2545C41.7012 21.9294 41.5329 22.52 41.1963 23.0262C40.8705 23.5218 40.4234 23.9068 39.8556 24.1809C39.2983 24.4446 38.6619 24.5764 37.9468 24.5764H35.6912V23.3109H37.9468C38.4202 23.3109 38.8356 23.2371 39.1931 23.0895C39.5612 22.9313 39.8451 22.6993 40.0448 22.3934C40.2553 22.0876 40.3605 21.708 40.3605 21.2545C40.3605 20.8011 40.2553 20.4214 40.0448 20.1156C39.8451 19.8098 39.5612 19.583 39.1931 19.4354C38.8356 19.2772 38.4202 19.1981 37.9468 19.1981H35.6912ZM34.9497 13.5034H40.8651V14.7689H36.2904V24.5764H34.9497V13.5034Z" fill="#173F35"/>
<path id="Vector_5" d="M47.4565 13.5034H48.7973V24.5764H47.4565V13.5034ZM48.198 14.7689V13.5034H50.4536C51.1687 13.5034 51.8051 13.6405 52.3624 13.9147C52.9302 14.1783 53.3773 14.558 53.7031 15.0536C54.0397 15.5493 54.208 16.1398 54.208 16.8253C54.208 17.5002 54.0397 18.0908 53.7031 18.597C53.3773 19.0926 52.9302 19.4776 52.3624 19.7517C51.8051 20.0154 51.1687 20.1472 50.4536 20.1472H48.198V18.8817H50.4536C51.1687 18.8817 51.7473 18.7077 52.189 18.3597C52.6412 18.0117 52.8673 17.5002 52.8673 16.8253C52.8673 16.1398 52.6412 15.6284 52.189 15.2909C51.7473 14.9429 51.1687 14.7689 50.4536 14.7689H48.198Z" fill="#173F35"/>
<path id="Vector_6" d="M60.7051 24.5764V23.3109H66.2734V24.5764H60.7051ZM60.7051 14.7689V13.5034H66.2734V14.7689H60.7051ZM60.7051 19.1981V17.9326H65.958V19.1981H60.7051ZM59.9636 13.5034H61.3043V24.5764H59.9636V13.5034Z" fill="#173F35"/>
<path id="Vector_7" d="M73.2427 19.1981V17.9326H80.8144V19.1981H73.2427ZM79.9154 13.5034H81.2561V24.5764H79.9154V13.5034ZM72.5012 13.5034H73.8422V24.5764H72.5012V13.5034Z" fill="#173F35"/>
<path id="Vector_8" d="M86.5381 14.7689V13.5034H93.5579V14.7689H90.7183V24.5764H89.3776V14.7689H86.5381Z" fill="#173F35"/>
<path id="Vector_9" d="M16.089 17.1266H11.4623C11.3338 17.1266 11.2295 17.2314 11.2295 17.3605C11.2295 17.4897 11.3338 17.5944 11.4623 17.5944H16.1729C16.3134 17.5944 16.4301 17.703 16.441 17.8436L17.3826 30.0272C17.3922 30.152 17.4958 30.2484 17.6204 30.2484C17.7454 30.2484 17.8492 30.1515 17.8584 30.0264L18.755 17.8446C18.7654 17.7035 18.8823 17.5944 19.0231 17.5944H23.8725C24.0011 17.5944 24.1053 17.4897 24.1053 17.3605C24.1053 17.2314 24.0011 17.1266 23.8725 17.1266H19.0811C18.9248 17.1266 18.8014 16.9931 18.813 16.8365L18.8548 16.2725C18.8656 16.1275 18.7513 16.0039 18.6066 16.0039C18.4763 16.0039 18.3681 16.1049 18.3584 16.2354L18.3109 16.8766C18.3004 17.0176 18.1835 17.1266 18.0428 17.1266H17.1348C16.995 17.1266 16.8785 17.0189 16.8669 16.879L16.8131 16.2308C16.8025 16.1026 16.6957 16.0039 16.5676 16.0039C16.4255 16.0039 16.3128 16.1244 16.3217 16.2668L16.3573 16.8397C16.367 16.9952 16.2441 17.1266 16.089 17.1266Z" fill="#173F35"/>
<path id="Vector_10" d="M18.0032 17.5728H17.1903C17.035 17.5728 16.912 17.7045 16.922 17.8601L17.6071 28.563L18.2715 17.8596C18.2812 17.7041 18.1583 17.5728 18.0032 17.5728Z" fill="#173F35"/>
<path id="Vector_11" d="M15.6663 13.1733H16.2706C16.4056 13.1733 16.5151 13.0634 16.5151 12.9277C16.5151 12.7921 16.4056 12.6821 16.2706 12.6821H15.2239C15.0754 12.6821 14.9551 12.803 14.9551 12.9522V14.9699C14.9551 15.1619 15.1487 15.2925 15.3256 15.22L19.544 13.4891C19.7208 13.4165 19.9145 13.5472 19.9145 13.7391V14.4704C19.9145 14.6196 19.7941 14.7405 19.6456 14.7405H19.1578C19.0227 14.7405 18.9133 14.8504 18.9133 14.986C18.9133 15.1217 19.0227 15.2316 19.1578 15.2316H20.0647C20.2132 15.2316 20.3336 15.1107 20.3336 14.9616V13.0796C20.3336 12.889 20.1422 12.7583 19.9657 12.8286L15.7653 14.5005C15.5889 14.5707 15.3975 14.4401 15.3975 14.2494V13.4434C15.3975 13.2942 15.5178 13.1733 15.6663 13.1733Z" fill="#173F35"/>
<path id="Vector_12" d="M19.4704 7.3332L18.7968 11.7214C18.7721 11.8822 18.6104 11.9829 18.4561 11.9335C18.3308 11.8935 18.254 11.7668 18.2761 11.6366L18.9292 7.78177C18.9572 7.61689 18.8307 7.46638 18.6642 7.46638H16.6668C16.5014 7.46638 16.3752 7.61495 16.4013 7.77901L17.0162 11.6503C17.0358 11.7734 16.9638 11.8926 16.8461 11.932C16.6971 11.9819 16.5393 11.8851 16.5154 11.7293L15.8406 7.3332C15.8155 7.16957 15.9415 7.02197 16.1063 7.02197H19.2047C19.3695 7.02197 19.4955 7.16957 19.4704 7.3332Z" fill="#173F35"/>
<path id="Vector_13" d="M12.6936 18.2212H12.5281C12.4169 18.2212 12.3171 18.29 12.2772 18.3944L10.076 24.1479C10.0129 24.3127 10.134 24.4897 10.3097 24.4897C10.4129 24.4897 10.5054 24.4262 10.543 24.3297L12.3464 19.6911C12.4358 19.4611 12.7602 19.4623 12.8479 19.693L14.6057 24.316C14.6455 24.4206 14.7454 24.4897 14.8569 24.4897H14.8639C15.0522 24.4897 15.1821 24.3003 15.1152 24.1236L12.9449 18.3952C12.9052 18.2904 12.8052 18.2212 12.6936 18.2212Z" fill="#173F35"/>
<path id="Vector_14" d="M22.6394 18.2212H22.4739C22.3627 18.2212 22.2629 18.29 22.223 18.3944L20.0218 24.1479C19.9587 24.3127 20.0798 24.4897 20.2555 24.4897C20.3587 24.4897 20.4512 24.4262 20.4888 24.3297L22.2922 19.6911C22.3816 19.4611 22.706 19.4623 22.7937 19.693L24.5515 24.316C24.5913 24.4206 24.6912 24.4897 24.8027 24.4897H24.8097C24.998 24.4897 25.1279 24.3003 25.061 24.1236L22.8907 18.3952C22.851 18.2904 22.751 18.2212 22.6394 18.2212Z" fill="#173F35"/>
<path id="Vector_15" d="M22.1965 28.5895L19.6282 26.3335C19.2544 26.0051 19.4856 25.3867 19.9821 25.3867H25.1647C25.6635 25.3867 25.8935 26.01 25.515 26.3366L22.9008 28.5925C22.698 28.7678 22.3978 28.7664 22.1965 28.5895Z" fill="#173F35"/>
<path id="Vector_16" d="M22.1965 28.5895L19.6282 26.3335C19.2544 26.0051 19.4856 25.3867 19.9821 25.3867H25.1647C25.6635 25.3867 25.8935 26.01 25.515 26.3366L22.9008 28.5925C22.698 28.7678 22.3978 28.7664 22.1965 28.5895Z" fill="#173F35"/>
<path id="Vector_17" d="M12.2492 28.5895L9.68092 26.3335C9.30711 26.0051 9.53829 25.3867 10.0348 25.3867H15.2174C15.7163 25.3867 15.9462 26.01 15.5677 26.3366L12.9536 28.5925C12.7507 28.7678 12.4506 28.7664 12.2492 28.5895Z" fill="#173F35"/>
</g>
<defs>
<clipPath id="clip0_188_803">
<rect width="107" height="37" fill="white"/>
</clipPath>
</defs>
</svg>
