<svg width="289" height="301" viewBox="0 0 289 301" fill="none" xmlns="http://www.w3.org/2000/svg">
<path d="M44.76 301H34.76V311H44.76V301ZM44.76 -1.52588e-05V-10H34.76V-1.52588e-05H44.76ZM254.6 25.8L248.503 33.7262L248.535 33.7509L248.567 33.7754L254.6 25.8ZM254.6 175.01L248.503 167.084V167.084L254.6 175.01ZM68.84 200.81L61.6169 193.894L45.421 210.81H68.84V200.81ZM88.19 180.6H98.19V155.696L80.9669 173.684L88.19 180.6ZM88.19 301V311H98.19V301H88.19ZM88.19 184.9L81.0417 191.893L98.19 209.422V184.9H88.19ZM68.84 165.12V155.12H45.0681L61.6917 172.113L68.84 165.12ZM223.64 148.35L229.867 156.174L223.64 148.35ZM223.64 53.75L229.768 45.8478L229.768 45.8478L223.64 53.75ZM68.84 37.41L61.4071 30.7203L46.3864 47.41H68.84V37.41ZM88.19 15.91H98.19V-10.1496L80.7571 9.22034L88.19 15.91ZM0.900001 250.69H-9.1V260.69H0.900001V250.69ZM0.900001 226.18V216.18H-9.1V226.18H0.900001ZM183.65 226.18H193.65V216.18H183.65V226.18ZM183.65 250.69V260.69H193.65V250.69H183.65ZM54.76 301V-1.52588e-05H34.76V301H54.76ZM44.76 9.99998H163.01V-10H44.76V9.99998ZM163.01 9.99998C200.313 9.99998 228.439 18.2923 248.503 33.7262L260.697 17.8737C236.041 -1.09235 203.107 -10 163.01 -10V9.99998ZM248.567 33.7754C267.994 48.4701 278.14 70.0554 278.14 100.19H298.14C298.14 64.9646 285.926 36.9566 260.633 17.8246L248.567 33.7754ZM278.14 100.19C278.14 130.322 267.992 152.092 248.503 167.084L260.697 182.936C285.928 163.528 298.14 135.418 298.14 100.19H278.14ZM248.503 167.084C228.439 182.518 200.313 190.81 163.01 190.81V210.81C203.107 210.81 236.041 201.902 260.697 182.936L248.503 167.084ZM163.01 190.81H68.84V210.81H163.01V190.81ZM76.0631 207.726L95.4131 187.516L80.9669 173.684L61.6169 193.894L76.0631 207.726ZM78.19 180.6V301H98.19V180.6H78.19ZM88.19 291H44.76V311H88.19V291ZM95.3383 177.907L75.9883 158.127L61.6917 172.113L81.0417 191.893L95.3383 177.907ZM68.84 175.12H163.01V155.12H68.84V175.12ZM163.01 175.12C190.621 175.12 213.388 169.29 229.867 156.174L217.413 140.526C205.798 149.77 188.145 155.12 163.01 155.12V175.12ZM229.867 156.174C246.673 142.798 254.71 123.793 254.71 100.62H234.71C234.71 118.727 228.7 131.542 217.413 140.526L229.867 156.174ZM254.71 100.62C254.71 77.6839 246.633 58.9263 229.768 45.8478L217.512 61.6522C228.741 70.3603 234.71 82.8494 234.71 100.62H254.71ZM229.768 45.8478C213.299 33.0761 190.574 27.41 163.01 27.41V47.41C188.193 47.41 205.887 52.6372 217.512 61.6522L229.768 45.8478ZM163.01 27.41H68.84V47.41H163.01V27.41ZM76.2729 44.0996L95.6229 22.5996L80.7571 9.22034L61.4071 30.7203L76.2729 44.0996ZM78.19 15.91V184.9H98.19V15.91H78.19ZM10.9 250.69V226.18H-9.1V250.69H10.9ZM0.900001 236.18H183.65V216.18H0.900001V236.18ZM173.65 226.18V250.69H193.65V226.18H173.65ZM183.65 240.69H0.900001V260.69H183.65V240.69Z" fill="#1A473C"/>
</svg>
