<svg width="379" height="322" viewBox="0 0 379 322" fill="none" xmlns="http://www.w3.org/2000/svg">
<g clip-path="url(#clip0_197_485)">
<path d="M51.8145 220.612L59.1844 235.217L76.2781 234.667L78.2538 232.932L69.3032 221.849L51.8145 220.612Z" fill="#FFBF9D"/>
<path d="M254.103 374.563C256.302 363.944 261.869 344.787 259.67 335.955C254.516 315.491 245.685 303.653 233.488 277.674H224.452L137.471 276.162L130.359 291.918C122.474 313.172 117.079 325.869 114.897 341.419C112.338 359.323 116.822 385.267 126.769 411.47C148.243 467.999 160.252 513.222 161.128 525.404C162.004 537.586 163.241 550.18 174.528 588.754C182.774 616.898 188.873 633.736 188.873 633.736C197.462 638.564 206.516 639.87 214.779 635.18L239.999 625.437C239.999 625.437 232.268 559.029 223.249 541.417C216.755 528.737 206.069 522.706 211.086 506.177C216.102 489.648 247.421 407.106 254.103 374.563Z" fill="#263238"/>
<path d="M152.401 320.938L152.744 321.368L153.707 322.708C154.548 323.928 155.785 325.681 157.383 327.949L171.127 347.76C170.457 355.182 170.216 363.808 169.752 373.395C169.288 382.983 168.859 393.721 168.395 405.062C167.931 416.402 167.158 428.532 166.505 441.144C165.853 453.755 165.097 467.123 163.825 480.783C162.503 492.157 161.334 503.308 162.296 514.047C162.525 516.704 162.886 519.347 163.379 521.968C163.814 524.537 164.44 527.069 165.251 529.545C166.969 534.356 169.151 539.03 171.127 543.566C179.149 561.71 186.588 577.93 192.91 591.572C199.232 605.215 204.266 616.211 207.805 623.857C209.523 627.654 210.897 630.61 211.842 632.637C212.272 633.634 212.615 634.355 212.873 634.94C213.131 635.524 213.182 635.73 213.182 635.73L212.787 634.974L211.688 632.723C210.708 630.696 209.3 627.757 207.513 623.995L192.378 591.83C186.056 578.222 178.479 562.019 170.422 543.875C168.429 539.322 166.333 534.7 164.495 529.786C163.661 527.278 163.018 524.71 162.571 522.105C162.071 519.462 161.704 516.796 161.472 514.116C160.492 503.291 161.661 492.054 162.983 480.697C164.255 467.089 164.908 453.79 165.681 441.092C166.454 428.395 167.021 416.281 167.639 405.01C168.258 393.739 168.756 383.103 169.254 373.515C169.752 363.928 170.044 355.285 170.766 347.863V348.034L157.177 328.069L153.603 322.777C153.226 322.176 152.916 321.729 152.71 321.402C152.591 321.259 152.487 321.104 152.401 320.938Z" fill="#455A64"/>
<path d="M163.98 135.286L169.306 121.798L201.105 120.08L214.093 121.798L215.536 125.526L224.349 281.522C224.349 281.522 193.546 287.742 178.136 285.577C162.726 283.412 144.636 276.384 144.636 276.384V187.674L163.98 135.286Z" fill="#F5F5F5"/>
<path d="M211.842 141.626C211.842 141.626 211.842 141.729 211.619 141.901L210.932 142.674C210.313 143.345 209.403 144.393 208.218 145.492C204.939 148.74 201.462 151.782 197.807 154.599L197.652 154.719L197.532 154.582C194.096 150.809 190.906 146.821 187.98 142.64C187.654 142.159 187.344 141.695 187.035 141.266H187.413C184.699 144.942 182.122 148.413 179.768 151.575C179.478 151.988 179.124 152.354 178.72 152.657C178.297 152.974 177.768 153.115 177.243 153.052C176.747 152.956 176.295 152.703 175.954 152.331C175.643 152.004 175.351 151.66 175.078 151.3L172.072 147.52L167.742 142.056C167.261 141.437 166.866 140.939 166.591 140.561C166.443 140.39 166.311 140.206 166.196 140.011C166.364 140.158 166.519 140.319 166.66 140.492C166.969 140.87 167.365 141.351 167.88 141.936L172.312 147.331L175.387 151.059C175.92 151.729 176.487 152.52 177.294 152.657C178.102 152.795 178.875 152.073 179.442 151.317L187.035 141.008L187.241 140.75L187.43 141.025L188.358 142.382C191.267 146.552 194.434 150.534 197.841 154.307H197.601C201.261 151.517 204.765 148.529 208.097 145.355C209.317 144.186 210.245 143.259 210.898 142.623L211.619 141.884L211.842 141.626Z" fill="#263238"/>
<g opacity="0.3">
<path d="M175.507 151.455C175.507 151.455 179.545 156.438 180.661 155.184C181.778 153.929 187.756 144.685 188.478 144.307C189.199 143.929 196.415 156.885 199.249 155.974C202.084 155.063 212.186 144.977 212.186 144.977L212.375 140.991L197.669 154.393L187.292 141.146L178.514 152.589C178.514 152.589 176.572 154.032 175.507 151.455Z" fill="#303030"/>
</g>
<path d="M182.259 286.523C182.225 286.037 182.225 285.549 182.259 285.063C182.259 284.014 182.259 282.623 182.379 280.87C182.534 277.142 182.757 271.901 183.015 265.406C183.565 252.4 184.286 234.479 184.974 214.599C185.661 194.72 186.176 176.799 186.52 163.775C186.709 157.332 186.863 152.091 186.966 148.311C186.966 146.593 187.087 145.167 187.121 144.119C187.149 143.697 187.206 143.278 187.293 142.864C187.326 143.356 187.326 143.85 187.293 144.342C187.293 145.373 187.293 146.765 187.293 148.517C187.293 152.246 187.293 157.486 187.138 163.981C186.949 177.005 186.537 194.909 185.85 214.84C185.162 234.771 184.338 252.64 183.633 265.63C183.256 272.073 182.946 277.296 182.723 281.093C182.586 282.846 182.482 284.238 182.414 285.269C182.4 285.691 182.348 286.11 182.259 286.523Z" fill="#263238"/>
<g opacity="0.3">
<path d="M154.256 223.619C148.69 260.159 143.118 296.711 137.54 333.274L138.846 345.147C140.306 346.865 143.226 346.264 144.721 344.614C146.054 342.816 146.852 340.678 147.023 338.446C153.38 300.474 156.816 261.917 154.256 223.619Z" fill="#303030"/>
</g>
<path d="M130.738 135.681C127.675 136.676 124.899 138.397 122.646 140.698C120.393 142.999 118.731 145.811 117.801 148.894L97.959 219.066L114.28 267.175L129.398 245.217L144 132.657L130.738 135.681Z" fill="#B5B5B5"/>
<path d="M130.72 253.825C130.72 255.062 130.84 255.75 130.84 255.75L98.1987 328.653C105.466 341.642 125.171 347.725 139.052 350.989C139.052 350.989 153.105 251.334 154.015 229.375C154.926 207.417 169.03 122.022 169.03 122.022L153.671 131.146L134.774 134.84" fill="#B5B5B5"/>
<path d="M102.236 320.456C102.26 320.342 102.301 320.232 102.357 320.13L102.752 319.168C103.13 318.309 103.662 317.071 104.332 315.491L110.294 301.848L130.6 255.663V255.766C130.462 250.8 130.273 245.646 130.016 240.302C129.483 228.429 128.813 217.107 128.384 206.797C127.954 196.488 127.696 187.227 127.611 179.426C127.525 171.626 127.611 165.32 127.611 160.956C127.611 158.791 127.696 157.107 127.714 155.939C127.714 155.389 127.714 154.959 127.714 154.633C127.714 154.306 127.714 154.186 127.714 154.186C127.714 154.186 127.714 154.341 127.714 154.633V155.939C127.714 157.107 127.714 158.808 127.714 160.956C127.714 165.32 127.714 171.626 127.834 179.426C127.954 187.227 128.246 196.488 128.71 206.78C129.174 217.072 129.792 228.395 130.428 240.285C130.669 245.56 130.857 250.715 130.995 255.749V255.852L110.568 301.968L104.487 315.559L102.769 319.202C102.58 319.597 102.425 319.906 102.322 320.147L102.236 320.456Z" fill="#505D63"/>
<path d="M153.053 218.464C153.045 218.39 153.045 218.315 153.053 218.241L152.881 217.536C152.727 216.884 152.52 215.973 152.246 214.839C151.765 212.468 151.06 209.049 150.425 204.787C149.789 200.526 149.153 195.44 148.707 189.753C148.26 184.066 147.813 177.829 147.504 171.265C147.384 168.808 147.281 166.403 147.178 164.049C147.178 162.88 147.075 161.712 147.023 160.612C147.023 160.028 147.023 159.461 147.023 158.894V157.623C147.023 157.623 147.023 157.468 147.023 157.399C147.017 157.342 147.017 157.285 147.023 157.228C147.059 157.205 147.101 157.192 147.143 157.192C147.186 157.192 147.228 157.205 147.264 157.228C147.435 157.314 147.384 157.331 147.435 157.365H147.109L152.16 153.843V154.204L146.662 151.643H146.525V151.489C147.35 148.362 148.346 145.595 149.205 143.138C150.064 140.681 150.923 138.585 151.559 136.85C152.194 135.114 152.778 133.757 153.156 132.846L153.603 131.798C153.642 131.675 153.7 131.559 153.775 131.455C153.748 131.579 153.708 131.7 153.654 131.815L153.276 132.881L151.765 136.918C151.129 138.637 150.356 140.802 149.514 143.241C148.672 145.681 147.693 148.482 146.903 151.575L146.8 151.351L152.297 153.894L152.624 154.049L152.332 154.255L147.298 157.812L146.972 157.726L147.126 157.623V158.259V159.083V160.801L147.281 164.238C147.384 166.592 147.504 168.997 147.607 171.454C147.916 178.001 148.294 184.255 148.775 189.925C149.256 195.595 149.841 200.681 150.493 204.942C151.146 209.203 151.747 212.64 152.211 214.993C152.435 216.162 152.624 217.073 152.744 217.725C152.744 218.018 152.847 218.241 152.881 218.43C152.916 218.619 153.07 218.464 153.053 218.464Z" fill="#505D63"/>
<path d="M247.902 264.856L259.927 143.465L226.135 131.076C226.135 131.076 218.215 123.791 213.989 120.011L212.512 139.066C212.512 139.066 207.908 217.055 215.123 256.265C222.338 295.474 221.29 294.185 226.565 319.701C230.396 338.274 231.014 354.511 236.786 356.144C242.559 357.776 271.781 347.106 271.781 347.106L247.902 264.856Z" fill="#B5B5B5"/>
<path d="M259.91 143.534C259.91 143.534 270.218 148.551 271.678 162.864C273.036 175.458 275.252 252.726 274.977 258.963C274.702 265.2 269.325 282.811 259.67 283.43C244.449 284.392 240.24 272.64 240.24 272.64L244.346 233.121L259.91 143.534Z" fill="#B5B5B5"/>
<path d="M221.153 214.375C221.144 214.295 221.144 214.214 221.153 214.134C221.153 213.962 221.153 213.739 221.273 213.464C221.399 212.823 221.571 211.964 221.789 210.887C222.184 208.636 222.802 205.406 223.386 201.351C224.589 193.292 225.62 182.055 226.204 169.633C226.341 166.695 226.479 163.825 226.616 161.042C226.616 159.667 226.736 158.293 226.788 156.97L226.908 154.977C226.908 154.667 226.908 154.341 226.908 154.014V153.551C226.917 153.476 226.917 153.401 226.908 153.327C226.929 153.339 226.953 153.346 226.977 153.346C227.001 153.346 227.025 153.339 227.046 153.327C227.046 153.327 227.183 153.327 227.166 153.327H226.857L221.823 149.788L221.531 149.581L221.857 149.444L227.355 146.901L227.252 147.107C226.766 144.894 226.394 142.657 226.135 140.406C225.877 138.43 225.637 136.729 225.362 135.252C225.155 134.19 224.891 133.141 224.572 132.107L224.314 131.3C224.314 131.111 224.228 131.025 224.314 131.025C224.365 131.105 224.405 131.192 224.434 131.283C224.434 131.454 224.623 131.712 224.743 132.073C225.11 133.099 225.403 134.15 225.62 135.217C225.929 136.609 226.204 138.31 226.496 140.286C226.779 142.521 227.175 144.74 227.681 146.935V147.09H227.544L222.063 149.667V149.324L227.114 152.76H226.805C226.862 152.747 226.92 152.747 226.977 152.76C227.032 152.739 227.093 152.739 227.149 152.76C227.162 152.817 227.162 152.875 227.149 152.932C227.157 153.018 227.157 153.104 227.149 153.19V153.688C227.149 154.014 227.149 154.341 227.149 154.667C227.149 155.32 227.149 155.973 227.063 156.643C227.063 157.983 226.942 159.341 226.874 160.715C226.753 163.499 226.616 166.351 226.479 169.306C226.051 179.935 225.065 190.534 223.524 201.059C222.905 205.097 222.235 208.344 221.806 210.578C221.548 211.66 221.359 212.519 221.204 213.138L221.033 213.808C221.187 214.289 221.17 214.375 221.153 214.375Z" fill="#263238"/>
<g opacity="0.3">
<path d="M171.453 277.879C171.453 277.879 169.151 280.886 174.219 281.797C179.287 282.708 236.787 278.481 236.787 278.481L247.713 284.821L246.287 280.233L237.182 270.508L171.453 277.879Z" fill="#303030"/>
</g>
<path d="M240.549 182.244L168.154 185.938C167.325 185.967 166.536 186.306 165.945 186.889C165.353 187.471 165.001 188.254 164.959 189.083L160.149 274.993C160.134 275.448 160.213 275.901 160.381 276.324C160.549 276.748 160.801 277.132 161.123 277.454C161.445 277.776 161.83 278.029 162.253 278.197C162.676 278.364 163.129 278.443 163.585 278.429L233.815 274.769C234.638 274.742 235.423 274.42 236.029 273.861C236.634 273.303 237.019 272.546 237.113 271.728L243.985 185.818C244.003 185.355 243.928 184.894 243.764 184.461C243.599 184.028 243.349 183.633 243.028 183.299C242.707 182.965 242.322 182.699 241.896 182.518C241.47 182.337 241.012 182.244 240.549 182.244Z" fill="#263238"/>
<g clip-path="url(#clip1_197_485)">
<path d="M228.207 196.092L178.762 197.744C177.237 197.795 176.041 199.077 176.093 200.608L176.542 214.053C176.593 215.584 177.871 216.784 179.396 216.733L228.841 215.082C230.367 215.031 231.562 213.748 231.511 212.217L231.062 198.772C231.011 197.241 229.733 196.041 228.207 196.092Z" fill="#173F35"/>
<path d="M188.136 201.039L224.598 199.821" stroke="white" stroke-width="0.2" stroke-linecap="round"/>
<path d="M191.435 212.862L224.996 211.741" stroke="white" stroke-width="0.2" stroke-linecap="round"/>
<path d="M194.665 207.076L194.643 206.427L195.802 206.388C196.169 206.376 196.498 206.435 196.789 206.567C197.086 206.692 197.322 206.879 197.498 207.128C197.679 207.377 197.776 207.677 197.787 208.029C197.799 208.375 197.723 208.681 197.558 208.947C197.399 209.207 197.176 209.412 196.889 209.562C196.608 209.707 196.283 209.786 195.916 209.798L194.757 209.837L194.735 209.187L195.894 209.149C196.137 209.14 196.349 209.095 196.53 209.014C196.717 208.926 196.859 208.802 196.956 208.642C197.059 208.481 197.106 208.284 197.099 208.052C197.091 207.819 197.03 207.626 196.917 207.473C196.809 207.319 196.659 207.208 196.468 207.138C196.281 207.063 196.067 207.03 195.823 207.038L194.665 207.076ZM194.186 204.167L197.225 204.065L197.247 204.714L194.897 204.793L195.065 209.826L194.376 209.849L194.186 204.167Z" fill="white"/>
<path d="M200.611 203.952L201.3 203.929L201.49 209.612L200.801 209.635L200.611 203.952ZM201.014 204.589L200.992 203.939L202.151 203.901C202.518 203.888 202.848 203.948 203.139 204.079C203.435 204.205 203.671 204.392 203.847 204.641C204.028 204.889 204.125 205.189 204.137 205.541C204.148 205.888 204.072 206.194 203.908 206.459C203.749 206.719 203.526 206.924 203.239 207.075C202.957 207.22 202.632 207.298 202.265 207.311L201.106 207.349L201.084 206.7L202.243 206.661C202.611 206.649 202.905 206.55 203.126 206.363C203.352 206.177 203.46 205.911 203.448 205.564C203.436 205.212 203.311 204.954 203.073 204.788C202.84 204.617 202.54 204.538 202.173 204.55L201.014 204.589Z" fill="white"/>
<path d="M207.607 209.408L207.586 208.758L210.446 208.663L210.468 209.312L207.607 209.408ZM207.439 204.374L207.418 203.725L210.278 203.629L210.3 204.279L207.439 204.374ZM207.515 206.647L207.493 205.998L210.192 205.908L210.214 206.557L207.515 206.647ZM207.037 203.737L207.725 203.714L207.915 209.397L207.226 209.42L207.037 203.737Z" fill="white"/>
<path d="M213.956 206.432L213.934 205.783L217.824 205.653L217.846 206.302L213.956 206.432ZM217.286 203.395L217.975 203.372L218.165 209.055L217.476 209.078L217.286 203.395ZM213.478 203.522L214.166 203.499L214.356 209.182L213.667 209.205L213.478 203.522Z" fill="white"/>
<path d="M220.711 203.931L220.689 203.282L224.295 203.161L224.317 203.811L222.858 203.859L223.026 208.893L222.338 208.916L222.169 203.882L220.711 203.931Z" fill="white"/>
<path d="M184.559 206.35L182.182 206.429C182.116 206.431 182.064 206.487 182.067 206.553C182.069 206.619 182.124 206.671 182.19 206.669L184.61 206.588C184.682 206.586 184.744 206.64 184.752 206.712L185.445 212.949C185.452 213.012 185.507 213.06 185.571 213.058C185.635 213.056 185.687 213.004 185.689 212.94L185.941 206.673C185.944 206.6 186.002 206.542 186.075 206.54L188.566 206.456C188.632 206.454 188.684 206.399 188.681 206.332C188.679 206.266 188.624 206.214 188.558 206.216L186.096 206.298C186.016 206.301 185.95 206.235 185.954 206.154L185.965 205.864C185.968 205.789 185.908 205.728 185.833 205.73C185.766 205.733 185.712 205.786 185.71 205.853L185.696 206.183C185.693 206.256 185.635 206.314 185.563 206.316L185.096 206.332C185.025 206.334 184.963 206.281 184.955 206.209L184.916 205.878C184.908 205.812 184.852 205.763 184.786 205.765C184.713 205.768 184.657 205.832 184.664 205.905L184.692 206.198C184.7 206.278 184.639 206.347 184.559 206.35Z" fill="white"/>
<path d="M185.55 206.546L185.132 206.56C185.052 206.563 184.992 206.632 184.999 206.712L185.535 212.193L185.693 206.689C185.695 206.609 185.63 206.543 185.55 206.546Z" fill="white"/>
<path d="M184.274 204.328L184.585 204.318C184.654 204.316 184.708 204.257 184.706 204.188C184.704 204.118 184.646 204.063 184.576 204.066L184.039 204.084C183.962 204.086 183.902 204.15 183.905 204.227L183.94 205.263C183.943 205.361 184.045 205.425 184.134 205.385L186.272 204.424C186.361 204.384 186.463 204.447 186.466 204.546L186.479 204.921C186.481 204.998 186.422 205.062 186.345 205.064L186.095 205.073C186.025 205.075 185.971 205.133 185.973 205.203C185.976 205.273 186.034 205.327 186.103 205.325L186.569 205.309C186.645 205.307 186.705 205.243 186.703 205.166L186.67 204.2C186.667 204.102 186.566 204.038 186.477 204.078L184.348 205.008C184.258 205.047 184.158 204.983 184.155 204.885L184.141 204.471C184.138 204.395 184.198 204.331 184.274 204.328Z" fill="white"/>
<path d="M186.128 201.265L185.857 203.529C185.847 203.612 185.766 203.666 185.686 203.644C185.621 203.625 185.579 203.562 185.588 203.494L185.858 201.505C185.869 201.42 185.802 201.345 185.716 201.348L184.69 201.382C184.605 201.385 184.543 201.463 184.559 201.547L184.941 203.523C184.953 203.586 184.918 203.648 184.859 203.671C184.783 203.699 184.7 203.652 184.685 203.572L184.263 201.328C184.248 201.244 184.31 201.166 184.394 201.163L185.986 201.11C186.071 201.107 186.138 201.181 186.128 201.265Z" fill="white"/>
<path d="M182.833 206.969L182.748 206.972C182.691 206.974 182.641 207.011 182.622 207.065L181.59 210.056C181.561 210.142 181.626 210.231 181.716 210.228C181.769 210.226 181.816 210.192 181.833 210.141L182.68 207.73C182.722 207.61 182.889 207.605 182.938 207.722L183.92 210.065C183.942 210.118 183.995 210.151 184.052 210.149L184.056 210.149C184.153 210.146 184.216 210.047 184.179 209.957L182.965 207.054C182.943 207.001 182.891 206.968 182.833 206.969Z" fill="white"/>
<path d="M187.943 206.799L187.858 206.802C187.801 206.804 187.751 206.841 187.732 206.895L186.7 209.886C186.67 209.971 186.735 210.06 186.826 210.057C186.879 210.055 186.925 210.021 186.943 209.971L187.79 207.559C187.832 207.44 187.998 207.435 188.047 207.552L189.03 209.894C189.052 209.947 189.104 209.981 189.162 209.979L189.165 209.979C189.262 209.976 189.325 209.876 189.288 209.787L188.075 206.884C188.053 206.831 188 206.797 187.943 206.799Z" fill="white"/>
<path d="M187.893 212.128L186.535 211.014C186.337 210.852 186.446 210.531 186.701 210.522L189.363 210.434C189.619 210.425 189.748 210.741 189.559 210.915L188.255 212.118C188.154 212.211 188 212.216 187.893 212.128Z" fill="white"/>
<path d="M187.893 212.128L186.535 211.014C186.337 210.852 186.446 210.531 186.701 210.522L189.363 210.434C189.619 210.425 189.748 210.741 189.559 210.915L188.255 212.118C188.154 212.211 188 212.216 187.893 212.128Z" fill="white"/>
<path d="M182.783 212.299L181.425 211.185C181.227 211.023 181.335 210.701 181.59 210.693L184.253 210.604C184.509 210.595 184.638 210.911 184.449 211.085L183.145 212.288C183.043 212.382 182.889 212.386 182.783 212.299Z" fill="white"/>
</g>
<path d="M255.736 163.482C255.712 163.742 255.672 164 255.615 164.255C255.512 164.788 255.375 165.527 255.186 166.437C254.808 168.396 254.275 171.128 253.605 174.496C252.283 181.368 250.565 190.715 248.898 201.162C247.232 211.609 245.995 221.11 245.153 227.983C244.741 231.42 244.414 234.169 244.174 236.127C244.071 237.072 243.968 237.846 243.899 238.344C243.888 238.605 243.848 238.865 243.779 239.117C243.759 238.86 243.759 238.601 243.779 238.344C243.779 237.794 243.882 237.055 243.968 236.11C244.139 234.186 244.414 231.385 244.792 227.949C245.548 221.076 246.751 211.54 248.4 201.093C250.049 190.647 251.836 181.231 253.245 174.427C253.949 170.99 254.55 168.293 254.963 166.403L255.478 164.238C255.543 163.979 255.63 163.727 255.736 163.482Z" fill="#505D63"/>
<path d="M242.027 238.482C242.027 238.482 246.184 238.722 249.878 244.891L256.939 249.392C256.939 249.392 263.106 259.083 256.939 268.138C250.771 277.193 243.298 269.512 243.298 269.512C243.298 269.512 235.859 273.207 233.764 272.554C227.443 269.66 221.335 266.324 215.484 262.571C214.883 262.055 210.331 256.832 210.331 256.832C210.331 256.832 204.026 255.475 203.304 254.031C202.583 252.588 202.531 249.272 206.74 249.598C206.74 249.598 202.617 248.361 202.136 246.265C201.655 244.169 202.136 241.471 209.472 242.502C216.807 243.533 230.826 247.451 232.458 247.056C232.627 246.959 232.765 246.816 232.855 246.643C232.944 246.47 232.983 246.275 232.964 246.081C232.946 245.887 232.873 245.702 232.752 245.549C232.632 245.396 232.47 245.281 232.286 245.217C231.771 244.977 215.227 238.533 212.564 237.812C209.901 237.09 209.283 230.63 215.21 232.142C221.137 233.654 240.464 238.327 240.464 238.327L242.027 238.482Z" fill="#FFBF9D"/>
<path d="M231.117 263.034C230.08 262.788 229.058 262.478 228.059 262.106C226.169 261.488 223.575 260.663 220.689 259.821C217.803 258.979 215.157 258.275 213.25 257.776C212.2 257.565 211.166 257.278 210.158 256.917C210.448 256.905 210.738 256.94 211.017 257.02C211.566 257.106 212.357 257.261 213.319 257.467C215.26 257.88 217.923 258.515 220.826 259.357C223.73 260.199 226.306 261.075 228.162 261.797C229.09 262.141 229.88 262.433 230.344 262.656C230.808 262.88 231.134 263 231.117 263.034Z" fill="#FF9A6C"/>
<path d="M233.489 255.354C233.13 255.404 232.765 255.404 232.406 255.354C231.719 255.354 230.688 255.148 229.486 254.959C227.012 254.598 223.627 254.014 219.9 253.241C216.172 252.467 212.839 251.522 210.451 250.921C209.248 250.577 208.286 250.303 207.616 250.079C207.262 250.002 206.921 249.875 206.603 249.701C206.964 249.734 207.32 249.803 207.668 249.907L210.537 250.595C212.942 251.196 216.292 251.986 220.003 252.794C223.713 253.601 227.098 254.22 229.537 254.667L232.441 255.217C232.794 255.226 233.145 255.272 233.489 255.354Z" fill="#FF9A6C"/>
<path d="M253.554 253.705C253.595 253.961 253.595 254.222 253.554 254.478C253.515 255.165 253.423 255.849 253.279 256.522C252.811 258.767 251.919 260.901 250.651 262.811C249.393 264.717 247.791 266.372 245.927 267.691C245.383 268.09 244.808 268.447 244.209 268.756C243.779 268.962 243.521 269.065 243.504 269.031C243.487 268.997 244.432 268.464 245.789 267.433C249.379 264.696 251.931 260.818 253.022 256.437C253.4 254.77 253.468 253.705 253.554 253.705Z" fill="#FF9A6C"/>
<path d="M255.89 270.509C255.89 270.509 256.801 269.512 257.9 267.674C259.314 265.271 260.11 262.555 260.219 259.77C260.294 256.985 259.668 254.226 258.398 251.746C257.419 249.839 256.509 248.842 256.577 248.791C256.824 248.983 257.044 249.209 257.23 249.461C257.781 250.125 258.27 250.838 258.69 251.591C260.096 254.09 260.791 256.925 260.7 259.79C260.609 262.655 259.736 265.441 258.175 267.845C257.714 268.57 257.185 269.249 256.595 269.873C256.396 270.122 256.158 270.336 255.89 270.509Z" fill="#263238"/>
<path d="M272.194 239.683C272.194 239.769 271.025 238.893 268.981 237.965C267.787 237.39 266.545 236.918 265.27 236.556C263.705 236.112 262.099 235.824 260.477 235.697C258.856 235.585 257.228 235.631 255.615 235.834C254.3 236.008 253.002 236.289 251.733 236.676C249.568 237.364 248.297 238.051 248.297 237.965C248.557 237.762 248.84 237.589 249.139 237.45C249.478 237.257 249.828 237.085 250.187 236.934C250.616 236.762 251.08 236.539 251.63 236.367C252.908 235.924 254.225 235.602 255.564 235.405C257.203 235.18 258.861 235.123 260.512 235.233C262.165 235.367 263.8 235.672 265.391 236.144C266.681 236.529 267.929 237.041 269.118 237.673C269.584 237.907 270.037 238.165 270.476 238.446C270.81 238.648 271.132 238.872 271.438 239.116C271.708 239.279 271.962 239.469 272.194 239.683Z" fill="#263238"/>
<g opacity="0.3">
<path d="M224.881 132.692C224.881 132.692 230.997 146.936 230.138 148.156C229.279 149.376 226.084 150.183 226.084 150.183C226.084 150.183 231.341 152.451 231.238 154.479C231.238 158.482 225.603 182.279 225.603 182.279L226.994 153.224L222.046 149.736L227.527 147.194L224.881 132.692Z" fill="#303030"/>
</g>
<path d="M99.848 205.491L88.3549 235.199L76.0028 221.333L59.4761 232.982L78.8891 264.099C84.9878 271.934 90.8117 277.243 97.443 276.401C98.778 276.224 100.091 275.907 101.36 275.456C110.465 272.346 116.736 266.247 119.106 256.917L129.586 216.075L99.848 205.491Z" fill="#B5B5B5"/>
<path d="M102.838 258.636C102.71 258.239 102.623 257.831 102.58 257.416C102.443 256.608 102.202 255.474 101.876 254.066C101.549 252.657 101.103 250.99 100.519 249.186C99.9345 247.382 99.1958 245.406 98.3197 243.378C97.4435 241.351 96.4643 239.495 95.5366 237.846C94.6089 236.196 93.664 234.736 92.8394 233.55C92.0148 232.365 91.3447 231.403 90.8465 230.767C90.583 230.44 90.342 230.095 90.125 229.736C90.4239 230.034 90.705 230.35 90.9668 230.681C91.7103 231.55 92.4099 232.456 93.0627 233.396C93.9045 234.564 94.7807 236.024 95.8286 237.674C96.8605 239.481 97.8009 241.339 98.6461 243.241C99.483 245.147 100.217 247.098 100.845 249.083C101.412 250.904 101.841 252.519 102.133 254.014C102.426 255.509 102.615 256.591 102.718 257.45C102.782 257.843 102.823 258.239 102.838 258.636Z" fill="#263238"/>
<path d="M97.2026 176.815C97.2026 176.815 137.059 222.004 145.082 230.32C148.83 233.773 152.852 236.916 157.108 239.718L144.532 240.749L97.2026 176.815Z" fill="#E0E0E0"/>
<path d="M93.1477 170.922L26.0272 164.994L24.189 172.004L86.0526 244.134L146.49 247.674L152.022 242.708L93.1477 170.922Z" fill="#E0E0E0"/>
<path d="M23.6743 171.935C24.0897 172.051 24.5155 172.126 24.9456 172.158L28.622 172.64L42.3657 174.255L88.6474 179.409L88.3553 179.255L96.0518 188.464L131.184 230.491C135.685 235.766 139.344 240.079 141.921 243.12C143.175 244.546 144.155 245.697 144.876 246.557L145.666 247.433C145.855 247.622 145.941 247.725 145.958 247.708C145.898 247.59 145.823 247.48 145.735 247.381L145.014 246.453C144.326 245.577 143.381 244.409 142.196 243.017L131.682 230.199L96.6874 188.121L88.991 178.894L88.8708 178.756H88.6989L42.3141 173.877L28.5704 172.519L24.8769 172.21C24.4819 172.094 24.0803 172.003 23.6743 171.935Z" fill="#263238"/>
<path d="M25.8047 166.694C26.2264 166.805 26.658 166.874 27.0932 166.901L30.8383 167.296L44.7194 168.67L91.7399 173L91.4306 172.846L99.4707 182.777C113.214 199.701 126.151 214.684 135.548 225.423C140.289 230.783 144.138 235.079 146.852 238.034L149.979 241.471L150.803 242.33C150.992 242.519 151.095 242.622 151.112 242.605C151.13 242.587 151.112 242.484 150.872 242.278C150.631 242.072 150.425 241.711 150.116 241.35L147.11 237.914L136.029 225.096C126.7 214.271 113.901 199.22 100.123 182.313L92.0663 172.382L91.946 172.244H91.7742L44.7022 168.086L30.7868 166.987L27.0416 166.729C26.6305 166.69 26.2173 166.679 25.8047 166.694Z" fill="#263238"/>
<path d="M149.153 244.736C149.153 244.736 149.153 244.615 148.93 244.409L148.209 243.481L145.322 239.959L134.585 227.158L98.9032 185.148L90.5023 175.32L90.3822 175.166H90.2103L44.0317 170.887L30.3911 169.719L26.7147 169.444C26.292 169.402 25.8661 169.402 25.4434 169.444C25.8569 169.534 26.2759 169.597 26.6975 169.633L30.3568 170.063L43.9802 171.506L90.1245 176.076L89.8324 175.922L98.2161 185.767L134.035 227.571L144.996 240.182C146.267 241.626 147.264 242.76 148.02 243.619C148.329 243.98 148.604 244.254 148.81 244.495C148.915 244.588 149.03 244.668 149.153 244.736Z" fill="#263238"/>
<path d="M66.3137 196.317C66.331 195.888 66.2585 195.459 66.1009 195.059C65.9434 194.659 65.7043 194.297 65.3988 193.994C65.0933 193.692 64.7281 193.457 64.3266 193.303C63.925 193.15 63.496 193.082 63.0667 193.104C62.0703 193.104 60.7819 193.224 59.2013 193.379C55.0954 193.791 42.9494 199.754 42.623 202.176C42.4005 203.036 42.4038 203.938 42.6326 204.796C42.8613 205.654 43.3078 206.438 43.9287 207.073C43.9287 207.073 41.5579 210.217 42.4341 212.829C43.19 215.046 46.7462 215.819 46.7462 215.819C46.7462 215.819 44.1177 218.894 46.8492 221.094C47.7941 221.85 49.701 223.31 50.1305 223.791C50.3024 224.456 50.5563 225.096 50.8864 225.698C51.4823 226.536 52.2505 227.236 53.1395 227.752C54.0285 228.267 55.0176 228.587 56.0402 228.688H56.7275C58.0433 228.808 59.3558 228.427 60.4039 227.623C65.1455 223.997 78.5799 213.482 78.8376 210.561C78.8376 210.561 81.3974 208.568 80.3838 206.472C79.3702 204.375 75.5734 205.303 75.5734 205.303C76.0961 204.882 76.4711 204.305 76.6441 203.656C76.817 203.008 76.7791 202.321 76.5356 201.695C75.6422 199.513 68.8735 199.702 65.7983 200.097C63.3417 200.424 56.5041 201.54 56.5041 201.54C56.5041 201.54 65.6093 198.413 66.1418 196.867C66.2217 196.692 66.2795 196.507 66.3137 196.317Z" fill="#FFBF9D"/>
<path d="M78.8898 210.629C78.6057 210.843 78.3006 211.027 77.9793 211.179C77.378 211.523 76.5018 211.987 75.3851 212.537C73.169 213.636 70.0595 215.011 66.5377 216.368C63.0159 217.726 59.8033 218.808 57.4497 219.564L54.6666 220.406C54.3231 220.519 53.9732 220.61 53.6187 220.681C53.9416 220.514 54.2814 220.381 54.6323 220.286L57.381 219.323C59.7002 218.533 62.9128 217.399 66.4174 216.059C69.9221 214.719 73.0487 213.361 75.2821 212.33L77.9106 211.076C78.2256 210.903 78.5529 210.754 78.8898 210.629Z" fill="#FF9A6C"/>
<path d="M76.0379 205.286C75.7116 205.385 75.3786 205.459 75.0415 205.51C74.4059 205.63 73.4782 205.802 72.3272 206.059C70.0423 206.558 66.9328 207.417 63.5313 208.499C61.8133 209.032 60.1984 209.496 58.7381 210.011C57.2778 210.527 55.9894 211.042 54.9243 211.506C53.8592 211.97 52.983 212.365 52.3988 212.657C52.0995 212.816 51.7896 212.954 51.4712 213.07C51.5388 213.009 51.6139 212.957 51.6945 212.915L52.3302 212.537C52.9143 212.21 53.7561 211.781 54.8212 211.283C55.8864 210.784 57.1748 210.252 58.635 209.719C60.0953 209.186 61.7274 208.705 63.4282 208.173C66.3327 207.229 69.2861 206.443 72.2756 205.819C73.4266 205.595 74.3716 205.458 75.0244 205.372C75.3603 205.323 75.6987 205.295 76.0379 205.286Z" fill="#FF9A6C"/>
<path d="M56.5558 201.609C56.098 201.918 55.6084 202.177 55.0955 202.382C54.1678 202.812 52.8621 203.361 51.419 203.963C49.9759 204.564 48.7046 205.131 47.7769 205.561C47.2877 205.816 46.7828 206.04 46.2651 206.231C46.6967 205.877 47.1698 205.577 47.6739 205.337C48.5672 204.856 49.8558 204.238 51.2988 203.619L54.9924 202.142C55.4959 201.916 56.0193 201.738 56.5558 201.609Z" fill="#FF9A6C"/>
<path d="M74.6115 215.956C74.4287 216.215 74.2216 216.457 73.993 216.677C73.5636 217.107 72.928 217.725 72.1205 218.395C70.5056 219.89 68.152 221.832 65.6266 223.945C64.991 224.478 64.4068 225.028 63.7712 225.526C63.1776 226.001 62.5582 226.443 61.9159 226.849C60.8173 227.533 59.6252 228.054 58.3769 228.395C57.5322 228.622 56.6539 228.698 55.7827 228.619C55.5483 228.637 55.3128 228.637 55.0783 228.619H54.8379C55.1526 228.6 55.4681 228.6 55.7827 228.619C56.6369 228.63 57.4881 228.515 58.3081 228.275C59.528 227.928 60.687 227.395 61.744 226.694C62.388 226.278 63.0075 225.825 63.5994 225.337C64.2179 224.856 64.802 224.306 65.4377 223.756C67.9802 221.591 70.351 219.718 72.0003 218.292L73.9244 216.574C74.1338 216.347 74.3638 216.14 74.6115 215.956Z" fill="#FF9A6C"/>
<path d="M150.236 45.6133C150.236 45.6133 141.921 76.7127 141.199 98.7228L140.959 106.06C140.959 106.06 159.307 121.3 174.717 122.228L187.619 90.5098L150.236 45.6133Z" fill="#624038"/>
<path d="M231.753 64.6852C228.317 49.5134 226.909 31.8503 214.282 21.9707C204.936 14.634 194.267 12.5721 182.379 13.0704C176.521 13.3281 169.924 16.0257 164.822 18.9123C157.83 22.8642 154.875 30.9397 151.507 38.1733C144.739 52.778 145.598 72.5373 150.185 78.0527L211.189 110.217C223.37 103.86 231.015 101.334 232.956 85.0974C233.744 78.2751 233.337 71.3677 231.753 64.6852Z" fill="#624038"/>
<path d="M213.646 34.0148L175.266 22.6918C162.897 20.9736 154.05 35.8532 152.761 48.293C151.352 62.0386 150.167 79.0316 151.404 89.5298C153.878 110.44 169.7 113.705 169.7 113.705L169.597 122.107L187.086 140.681L213.817 122.829L219.933 41.6951C220.042 39.859 219.455 38.0492 218.29 36.6261C217.125 35.2029 215.467 34.2706 213.646 34.0148Z" fill="#FFBF9D"/>
<path d="M156.369 69.7707C156.336 70.4678 156.576 71.1504 157.038 71.6733C157.5 72.1963 158.147 72.5185 158.843 72.5714C159.181 72.6118 159.524 72.5839 159.851 72.4892C160.179 72.3946 160.483 72.2352 160.748 72.0204C161.012 71.8057 161.231 71.54 161.39 71.2391C161.55 70.9383 161.648 70.6084 161.678 70.269C161.711 69.5765 161.473 68.8983 161.014 68.3785C160.556 67.8588 159.912 67.5384 159.221 67.4855C158.883 67.445 158.541 67.4722 158.214 67.5656C157.886 67.659 157.581 67.8167 157.316 68.0295C157.05 68.2422 156.83 68.5058 156.667 68.8048C156.505 69.1038 156.403 69.4322 156.369 69.7707Z" fill="#263238"/>
<path d="M155.269 60.8191C155.595 61.18 157.674 59.771 160.543 59.8913C163.412 60.0116 165.439 61.6095 165.697 61.1971C165.955 60.7848 165.542 60.4068 164.666 59.7023C163.461 58.7904 162.002 58.2742 160.492 58.2247C158.999 58.1692 157.527 58.5839 156.283 59.4102C155.441 60.0459 155.114 60.6645 155.269 60.8191Z" fill="#263238"/>
<path d="M180.97 69.7707C180.937 70.465 181.174 71.1451 181.633 71.6677C182.091 72.1902 182.734 72.5142 183.427 72.5713C183.766 72.6094 184.109 72.5799 184.436 72.4845C184.763 72.3891 185.068 72.2297 185.334 72.0156C185.599 71.8015 185.819 71.5368 185.981 71.237C186.144 70.9372 186.245 70.6081 186.279 70.2689C186.308 69.5748 186.066 68.8966 185.604 68.3773C185.143 67.8581 184.498 67.5383 183.805 67.4854C183.468 67.445 183.127 67.4723 182.8 67.5659C182.474 67.6595 182.17 67.8174 181.906 68.0304C181.642 68.2434 181.423 68.507 181.262 68.8059C181.102 69.1048 181.002 69.4328 180.97 69.7707Z" fill="#263238"/>
<path d="M183.479 61.163C183.805 61.5238 185.884 60.1149 188.753 60.2352C191.622 60.3554 193.666 61.9534 193.907 61.5238C194.147 61.0943 193.77 60.7334 192.876 60.029C191.664 59.1311 190.209 58.6218 188.702 58.5685C187.21 58.4996 185.735 58.909 184.493 59.7369C183.651 60.3898 183.324 61.0083 183.479 61.163Z" fill="#263238"/>
<path d="M172.312 79.7538C170.818 79.2321 169.266 78.8917 167.691 78.74C166.952 78.6369 166.265 78.4651 166.162 77.9497C166.128 77.2159 166.307 76.488 166.677 75.8535L169.065 70.3552C172.381 62.5374 174.82 56.0942 174.494 55.9739C174.167 55.8536 171.23 62.0735 167.914 69.8913L165.612 75.4239C165.114 76.2859 164.943 77.2985 165.131 78.2761C165.224 78.5385 165.376 78.7758 165.575 78.9695C165.775 79.1633 166.017 79.3082 166.282 79.3929C166.682 79.5249 167.098 79.6001 167.519 79.6163C169.103 79.8775 170.715 79.9238 172.312 79.7538Z" fill="#263238"/>
<path d="M169.58 113.654C179.36 114.194 189.096 112.005 197.703 107.331C197.703 107.331 190.247 121.592 169.529 118.843L169.58 113.654Z" fill="#FF9A6C"/>
<path d="M181.606 86.163C181.248 85.5662 180.746 85.0691 180.146 84.7178C179.545 84.3664 178.866 84.1721 178.17 84.1527C177.206 84.0366 176.228 84.1847 175.342 84.5811C174.455 84.9776 173.693 85.6075 173.137 86.4035C172.728 87.1359 172.618 87.9972 172.827 88.809C172.982 89.2385 172.827 89.0324 173.171 89.3245C174.22 90.4577 175.529 91.3187 176.985 91.833C177.767 92.0648 178.601 92.0542 179.376 91.8027C180.152 91.5512 180.834 91.0706 181.331 90.4241C181.765 89.8081 182.02 89.0842 182.069 88.3323C182.117 87.5803 181.957 86.8296 181.606 86.163Z" fill="#FF9A6C"/>
<path d="M181.193 82.1938C180.729 82.1938 180.575 85.2694 177.757 87.3484C174.94 89.4275 171.693 88.9464 171.658 89.3931C171.624 89.8398 172.363 90.0288 173.771 90.1319C175.616 90.2447 177.441 89.7032 178.925 88.6027C180.329 87.554 181.271 86.002 181.554 84.2729C181.708 82.9842 181.399 82.1938 181.193 82.1938Z" fill="#263238"/>
<path d="M182.396 50.6652C182.603 51.4727 185.489 51.3868 188.804 52.1085C192.12 52.8301 194.731 54.0157 195.247 53.3628C195.487 53.0535 195.075 52.2803 194.061 51.4212C192.694 50.3535 191.101 49.6126 189.404 49.2552C187.707 48.8978 185.95 48.9335 184.269 49.3594C182.998 49.7374 182.31 50.2872 182.396 50.6652Z" fill="#624038"/>
<path d="M155.51 53.1049C156.163 53.6719 158.259 52.6925 160.87 52.2801C163.482 51.8677 165.801 52.0052 166.213 51.2492C166.385 50.8884 165.938 50.3042 164.873 49.8231C163.436 49.264 161.87 49.1211 160.355 49.4107C158.838 49.6431 157.419 50.3049 156.266 51.3179C155.424 52.1255 155.218 52.8299 155.51 53.1049Z" fill="#624038"/>
<path d="M175.111 20.4419L175.008 20.905C175.094 20.7678 175.094 20.6134 175.111 20.4419Z" fill="#263238"/>
<path d="M205.451 121.042C204.983 121.18 204.491 121.217 204.008 121.15C203.525 121.083 203.061 120.914 202.648 120.654C202.236 120.394 201.883 120.048 201.614 119.641C201.345 119.234 201.165 118.775 201.088 118.293C200.427 114.106 200.392 109.844 200.984 105.647C201.654 99.8739 205.571 93.8259 206.052 88.0355C206.997 76.9875 206.052 70.8535 204.781 61.5237C199.473 60.663 194.663 57.8881 191.261 53.7231C187.103 48.8606 184.578 42.8469 182.121 36.9191C182.282 42.7645 184.258 48.415 187.773 53.0873C186.604 53.2639 185.409 53.1648 184.285 52.7979C183.16 52.4309 182.137 51.8064 181.297 50.9739C179.631 49.2983 178.337 47.2901 177.5 45.0805C175.255 39.812 174.009 34.1723 173.824 28.4483C173.044 36.6417 173.968 44.9078 176.538 52.7265C175.038 52.4486 173.494 52.5073 172.02 52.8983C171.282 53.0887 170.51 53.1055 169.765 52.9475C169.02 52.7895 168.322 52.461 167.725 51.9877C167.073 51.1914 166.662 50.2259 166.539 49.2042C165.101 42.2453 164.868 35.0908 165.852 28.0532C163.885 31.7953 162.285 35.7198 161.076 39.7713C159.917 43.8601 159.917 48.1909 161.076 52.2798C160.907 52.4491 160.706 52.5835 160.485 52.6752C160.264 52.7668 160.027 52.814 159.788 52.814C159.548 52.814 159.312 52.7668 159.09 52.6752C158.869 52.5835 158.668 52.4491 158.499 52.2798C157.85 51.5542 157.452 50.6381 157.366 49.6681C157.01 46.1434 157.242 42.5842 158.053 39.1355C155.974 42.8125 155.287 47.0908 154.136 51.1629C152.985 55.2351 151.164 59.4103 147.625 61.7299C147.025 56.4122 147.199 51.0357 148.14 45.7678C149.102 41.3503 150.675 37.0883 152.813 33.1047C154.835 28.6864 157.7 24.7058 161.248 21.3865C167.364 16.0258 169.924 18.3281 173.841 20.3728L174.305 20.5618C174.305 20.5618 174.305 20.3728 174.305 20.2697L174.494 19.445C184.745 17.1535 195.423 17.6519 205.417 20.8883C212.787 23.2937 213.457 39.1699 215.261 31.627C216.343 27.0566 222.27 31.2318 222.339 31.3521C231.032 47.0393 240.24 71.9188 240.669 111.231L205.451 121.042Z" fill="#624038"/>
<path d="M288.413 169.698L289.088 169.8L291.174 170.05L299.397 170.99H299.72L299.558 170.711L299.309 170.917C303.651 175.197 308.983 178.34 314.83 180.066C316.666 180.605 318.542 180.998 320.44 181.241C321.424 181.388 322.437 181.403 323.465 181.491C323.979 181.491 324.493 181.579 325.007 181.564H326.592C336.185 181.26 345.282 177.23 351.953 170.329C357.977 164.142 361.662 156.051 362.375 147.444C363.088 138.837 360.784 130.25 355.859 123.156C352.387 118.122 347.72 114.029 342.275 111.245C337.098 108.556 331.368 107.103 325.535 107.001C315.925 106.94 306.662 110.591 299.677 117.193C292.693 123.796 288.526 132.84 288.046 142.439C287.742 148.517 288.958 154.574 291.585 160.063V159.946C290.557 163.089 289.764 165.541 289.206 167.289C288.956 168.082 288.751 168.758 288.604 169.14C288.527 169.34 288.468 169.546 288.428 169.756C288.428 169.756 288.53 169.521 288.677 169.096C288.824 168.67 289.059 168.023 289.353 167.23C289.94 165.571 290.821 163.192 291.878 160.107V159.872C288.697 152.941 287.753 145.191 289.177 137.698C290.601 130.205 294.323 123.342 299.825 118.061C305.328 112.781 312.338 109.345 319.882 108.232C327.426 107.118 335.13 108.382 341.923 111.847C347.27 114.59 351.844 118.63 355.227 123.597C358.307 128.072 360.355 133.175 361.225 138.539C362.094 143.902 361.762 149.391 360.253 154.61C358.745 159.829 356.097 164.649 352.5 168.721C348.904 172.793 344.449 176.016 339.456 178.157C335.366 179.897 330.99 180.867 326.548 181.021L325.08 181.094C324.566 181.094 324.052 181.094 323.612 181.021C322.598 181.021 321.6 180.933 320.675 180.801C312.773 179.837 305.403 176.314 299.69 170.77L298.824 169.933L299.456 170.961L299.617 170.711L291.467 169.977L289.338 169.786L288.413 169.698Z" fill="white"/>
<path d="M325.418 141.838L340.425 154.938C340.736 155.207 340.99 155.534 341.174 155.901C341.358 156.268 341.467 156.668 341.496 157.077C341.524 157.487 341.472 157.898 341.341 158.287C341.21 158.676 341.004 159.035 340.734 159.344C340.443 159.675 340.085 159.94 339.683 160.122C339.282 160.304 338.847 160.398 338.406 160.398C337.966 160.398 337.53 160.304 337.129 160.122C336.727 159.94 336.369 159.675 336.079 159.344L322.863 144.452L325.418 141.838Z" fill="white"/>
<path d="M327.195 138.195L319.485 146.331L311.791 138.694L319.779 130.778L327.195 138.195Z" fill="white"/>
<path d="M320.895 130.352L327.738 137.196C327.874 137.336 328.038 137.447 328.218 137.523C328.398 137.599 328.592 137.638 328.788 137.638C328.983 137.638 329.177 137.599 329.357 137.523C329.537 137.447 329.701 137.336 329.838 137.196C329.977 137.059 330.089 136.896 330.164 136.716C330.24 136.535 330.279 136.342 330.279 136.146C330.279 135.95 330.24 135.757 330.164 135.576C330.089 135.396 329.977 135.233 329.838 135.096L322.995 128.252C322.858 128.112 322.695 128.001 322.514 127.925C322.334 127.849 322.14 127.81 321.945 127.81C321.749 127.81 321.555 127.849 321.375 127.925C321.195 128.001 321.031 128.112 320.895 128.252C320.755 128.389 320.644 128.552 320.568 128.732C320.492 128.913 320.453 129.106 320.453 129.302C320.453 129.498 320.492 129.691 320.568 129.872C320.644 130.052 320.755 130.215 320.895 130.352Z" fill="white"/>
<path d="M309.265 141.793L316.108 148.637C316.244 148.777 316.408 148.888 316.588 148.964C316.768 149.04 316.962 149.079 317.158 149.079C317.353 149.079 317.547 149.04 317.727 148.964C317.908 148.888 318.071 148.777 318.208 148.637C318.348 148.5 318.459 148.337 318.535 148.157C318.61 147.976 318.649 147.783 318.649 147.587C318.649 147.391 318.61 147.198 318.535 147.017C318.459 146.837 318.348 146.674 318.208 146.537L311.365 139.693C311.228 139.553 311.065 139.442 310.884 139.366C310.704 139.29 310.51 139.251 310.315 139.251C310.119 139.251 309.925 139.29 309.745 139.366C309.565 139.442 309.402 139.553 309.265 139.693C309.125 139.83 309.014 139.993 308.938 140.173C308.862 140.354 308.823 140.547 308.823 140.743C308.823 140.939 308.862 141.132 308.938 141.313C309.014 141.493 309.125 141.656 309.265 141.793Z" fill="white"/>
<path d="M330.499 160.871V159.182C330.495 158.607 330.265 158.056 329.858 157.649C329.451 157.243 328.901 157.012 328.326 157.009V156.935C328.322 156.322 328.076 155.736 327.641 155.304C327.206 154.872 326.618 154.629 326.006 154.629H314.096C313.794 154.629 313.494 154.689 313.214 154.805C312.934 154.921 312.68 155.091 312.466 155.305C312.252 155.519 312.082 155.773 311.967 156.053C311.851 156.333 311.791 156.632 311.791 156.935C311.215 156.935 310.662 157.164 310.254 157.572C309.847 157.979 309.618 158.532 309.618 159.109V160.886L330.499 160.871Z" fill="white"/>
</g>
<defs>
<clipPath id="clip0_197_485">
<rect width="379" height="322" fill="white"/>
</clipPath>
<clipPath id="clip1_197_485">
<rect width="55" height="19" fill="white" transform="translate(176 197.836) rotate(-1.91286)"/>
</clipPath>
</defs>
</svg>
